<?xml version="1.0" encoding="UTF-8"?>
<svg xmlns="http://www.w3.org/2000/svg" xmlns:xlink="http://www.w3.org/1999/xlink" width="128" height="128" viewBox="0 0 128 128" version="1.1">
<defs>
<linearGradient id="linear0" gradientUnits="userSpaceOnUse" x1="263.862" y1="445.388" x2="263.862" y2="251.498" gradientTransform="matrix(0.25,0,0,0.25,0,0)">
<stop offset="0" style="stop-color:rgb(100%,100%,100%);stop-opacity:0.94902;"/>
<stop offset="1" style="stop-color:rgb(100%,100%,100%);stop-opacity:0.501961;"/>
</linearGradient>
</defs>
<g id="surface1">
<path style=" stroke:none;fill-rule:nonzero;fill:rgb(0%,65.098039%,44.705882%);fill-opacity:1;" d="M 64 0 C 99.347656 0 128 28.652344 128 64 C 128 99.347656 99.347656 128 64 128 C 28.652344 128 0 99.347656 0 64 C 0 28.652344 28.652344 0 64 0 Z M 64 0 "/>
<path style=" stroke:none;fill-rule:evenodd;fill:url(#linear0);" d="M 21.023438 64.039062 C 21.125 90.230469 42.621094 107.535156 64.355469 107 C 90.007812 106.085938 108.542969 83.800781 107 63.910156 C 106.644531 59.777344 102.976562 56.574219 98.839844 56.773438 C 94.699219 56.972656 91.503906 60.488281 91.703125 64.628906 C 92.28125 76.71875 81.132812 91.523438 63.984375 92 C 50.363281 92.332031 36.722656 81.636719 36.128906 64.992188 C 35.96875 68.851562 32.925781 72.003906 28.996094 72.160156 C 24.855469 72.324219 21.214844 68.984375 21.046875 64.84375 C 21.035156 64.574219 21.027344 64.308594 21.023438 64.039062 Z M 21.023438 64.039062 "/>
<path style=" stroke:none;fill-rule:nonzero;fill:rgb(100%,100%,100%);fill-opacity:1;" d="M 56.386719 64.445312 C 56.386719 60.195312 59.835938 56.753906 64.085938 56.753906 C 68.335938 56.753906 71.785156 60.195312 71.785156 64.445312 C 71.785156 68.695312 68.335938 72.136719 64.085938 72.136719 C 59.835938 72.136719 56.386719 68.695312 56.386719 64.445312 Z M 56.386719 64.445312 "/>
<path style=" stroke:none;fill-rule:nonzero;fill:rgb(100%,100%,100%);fill-opacity:1;" d="M 80.09375 64.433594 C 80.09375 60.191406 83.5625 56.753906 87.84375 56.753906 L 99.140625 56.753906 C 103.421875 56.753906 107 60.191406 107 64.433594 C 107 68.675781 103.421875 72.117188 99.140625 72.117188 L 87.84375 72.117188 C 83.5625 72.117188 80.09375 68.675781 80.09375 64.433594 Z M 80.09375 64.433594 "/>
<path style=" stroke:none;fill-rule:evenodd;fill:rgb(100%,100%,100%);fill-opacity:1;" d="M 71.570312 28.503906 C 71.742188 32.640625 68.527344 36.136719 64.382812 36.308594 C 46.507812 37.050781 35.597656 51.0625 36.128906 64.363281 C 36.292969 68.503906 33.136719 71.992188 28.996094 72.160156 C 24.855469 72.324219 21.214844 68.984375 21.046875 64.839844 C 20.183594 43.164062 38.285156 21.738281 63.761719 21.316406 C 67.902344 21.144531 71.398438 24.363281 71.570312 28.503906 Z M 71.570312 28.503906 "/>
</g>
</svg>
