<?xml version="1.0" encoding="UTF-8"?>
<svg xmlns="http://www.w3.org/2000/svg" xmlns:xlink="http://www.w3.org/1999/xlink" width="128" height="128" viewBox="0 0 96 96" version="1.1">
<g id="surface1">
<path style=" stroke:none;fill-rule:nonzero;fill:rgb(14.117647%,80%,73.72549%);fill-opacity:1;" d="M 69.601562 33.359375 L 69.359375 33.121094 L 71.28125 21.121094 L 80.398438 30.238281 L 71.039062 34.320312 L 70.800781 34.320312 Z M 82.800781 32.640625 L 92.398438 42.238281 C 94.558594 44.398438 95.519531 45.359375 95.761719 46.558594 L 96 47.039062 L 72.71875 37.199219 L 72.480469 36.960938 L 72.71875 36.71875 Z M 95.519531 50.160156 C 95.039062 51.121094 94.078125 52.078125 92.398438 53.761719 L 81.601562 64.558594 L 67.441406 61.679688 L 67.199219 61.679688 L 66.960938 61.441406 C 66.960938 60.238281 66.238281 59.28125 65.28125 58.558594 L 65.28125 58.320312 L 67.921875 42 L 67.921875 41.761719 L 68.160156 41.519531 C 69.359375 41.519531 70.320312 40.800781 71.039062 39.839844 L 71.519531 39.839844 Z M 78.960938 67.199219 L 60.960938 85.199219 L 64.078125 66.238281 L 64.320312 66 L 66 64.800781 L 66.238281 64.558594 Z M 57.121094 89.039062 L 55.199219 90.960938 L 32.640625 58.558594 L 32.640625 58.320312 L 32.878906 57.839844 L 33.121094 57.601562 L 33.359375 57.601562 L 58.078125 62.878906 L 58.320312 62.878906 L 58.320312 63.121094 C 58.800781 64.320312 59.761719 65.519531 60.960938 66 L 60.960938 66.238281 Z M 53.039062 93.121094 C 51.359375 94.558594 50.640625 95.519531 49.441406 95.761719 L 46.558594 95.761719 C 45.359375 95.28125 44.398438 94.320312 42.238281 92.398438 L 19.679688 69.839844 L 25.679688 60.71875 L 25.921875 60.71875 C 27.339844 61.179688 28.878906 61.09375 30.238281 60.480469 L 30.480469 60.480469 Z M 17.519531 67.679688 L 12.480469 62.640625 L 22.558594 58.078125 L 22.800781 58.078125 L 23.039062 58.320312 L 23.28125 58.800781 L 23.28125 59.039062 Z M 10.078125 60.238281 L 3.601562 53.761719 L 1.199219 51.121094 L 21.121094 55.199219 L 21.359375 55.441406 L 21.121094 55.679688 Z M 0 47.761719 L 0.238281 46.558594 C 0.480469 45.359375 1.679688 44.398438 3.601562 42.238281 L 12 33.839844 C 15.828125 39.445312 19.667969 45.046875 23.519531 50.640625 L 23.761719 50.878906 C 23.296875 51.304688 22.894531 51.789062 22.558594 52.320312 L 22.320312 52.320312 Z M 14.160156 31.679688 L 25.441406 20.398438 L 33.839844 24 C 35.84375 24.875 37.84375 25.753906 39.839844 26.640625 L 39.601562 27.839844 C 39.601562 29.039062 40.078125 30.238281 41.039062 31.199219 L 41.039062 31.679688 L 29.519531 49.199219 L 29.519531 49.441406 L 29.28125 49.441406 L 27.839844 49.199219 L 26.640625 49.441406 L 26.398438 49.441406 L 26.398438 49.199219 Z M 27.839844 18.238281 L 42.238281 3.601562 C 44.398438 1.679688 45.359375 0.71875 46.558594 0.238281 L 49.441406 0.238281 C 50.640625 0.71875 51.839844 1.679688 53.761719 3.601562 L 56.878906 6.71875 L 46.558594 22.800781 L 46.558594 23.039062 L 46.320312 23.039062 L 44.640625 22.800781 C 43.441406 22.800781 42.238281 23.039062 41.519531 23.761719 L 41.039062 23.761719 Z M 59.039062 8.878906 L 68.640625 18.480469 L 66.480469 32.878906 L 66.238281 32.878906 L 66.238281 33.121094 C 65.722656 33.273438 65.234375 33.515625 64.800781 33.839844 L 64.558594 33.839844 L 49.921875 27.601562 L 49.679688 27.359375 C 49.59375 26.597656 49.347656 25.863281 48.960938 25.199219 L 48.960938 24.71875 Z M 49.199219 30.480469 L 62.878906 36.238281 L 63.121094 36.480469 L 63.121094 37.679688 L 62.878906 37.921875 L 32.398438 50.878906 L 32.160156 50.640625 L 32.398438 50.398438 L 43.679688 33.121094 L 43.921875 32.878906 L 44.640625 32.878906 C 46.398438 32.890625 48.039062 31.980469 48.960938 30.480469 Z M 33.601562 53.519531 L 64.320312 40.320312 L 64.800781 40.800781 L 65.039062 40.800781 L 65.039062 41.039062 L 62.398438 57.359375 L 62.398438 57.601562 C 60.960938 57.601562 59.519531 58.558594 58.800781 59.761719 L 58.800781 60 L 58.558594 60 L 34.078125 54.71875 Z M 33.601562 53.519531 "/>
</g>
</svg>
