<svg id="svg" version="1.1" xmlns="http://www.w3.org/2000/svg" xmlns:xlink="http://www.w3.org/1999/xlink" width="400" height="400" viewBox="0, 0, 400,400">
    <g id="svgg">
        <path id="path0" d="M214.700 71.893 C 215.635 71.977,217.165 71.977,218.100 71.893 C 219.035 71.809,218.270 71.740,216.400 71.740 C 214.530 71.740,213.765 71.809,214.700 71.893 M55.500 73.493 C 56.435 73.577,57.965 73.577,58.900 73.493 C 59.835 73.409,59.070 73.340,57.200 73.340 C 55.330 73.340,54.565 73.409,55.500 73.493 M244.272 75.208 C 244.532 75.542,244.816 76.622,244.903 77.608 L 245.060 79.400 245.130 77.549 C 245.181 76.202,245.009 75.548,244.500 75.149 C 243.888 74.669,243.860 74.677,244.272 75.208 M220.909 82.000 C 220.909 82.990,220.987 83.395,221.082 82.900 C 221.178 82.405,221.178 81.595,221.082 81.100 C 220.987 80.605,220.909 81.010,220.909 82.000 M53.700 81.494 C 54.745 81.576,56.455 81.576,57.500 81.494 C 58.545 81.412,57.690 81.344,55.600 81.344 C 53.510 81.344,52.655 81.412,53.700 81.494 M88.954 90.000 C 88.954 92.750,89.018 93.875,89.096 92.500 C 89.174 91.125,89.174 88.875,89.096 87.500 C 89.018 86.125,88.954 87.250,88.954 90.000 M220.909 88.400 C 220.909 89.390,220.987 89.795,221.082 89.300 C 221.178 88.805,221.178 87.995,221.082 87.500 C 220.987 87.005,220.909 87.410,220.909 88.400 M97.293 88.400 C 97.293 89.170,97.375 89.485,97.476 89.100 C 97.576 88.715,97.576 88.085,97.476 87.700 C 97.375 87.315,97.293 87.630,97.293 88.400 M220.909 94.400 C 220.909 95.390,220.987 95.795,221.082 95.300 C 221.178 94.805,221.178 93.995,221.082 93.500 C 220.987 93.005,220.909 93.410,220.909 94.400 M42.000 98.125 C 42.000 98.194,42.585 98.779,43.300 99.425 L 44.600 100.600 43.425 99.300 C 42.330 98.088,42.000 97.816,42.000 98.125 M88.982 118.000 C 88.982 126.690,89.035 130.245,89.100 125.900 C 89.164 121.555,89.164 114.445,89.100 110.100 C 89.035 105.755,88.982 109.310,88.982 118.000 M97.293 107.200 C 97.293 107.970,97.375 108.285,97.476 107.900 C 97.576 107.515,97.576 106.885,97.476 106.500 C 97.375 106.115,97.293 106.430,97.293 107.200 M173.693 115.600 C 173.693 116.370,173.775 116.685,173.876 116.300 C 173.976 115.915,173.976 115.285,173.876 114.900 C 173.775 114.515,173.693 114.830,173.693 115.600 M97.293 116.400 C 97.293 117.170,97.375 117.485,97.476 117.100 C 97.576 116.715,97.576 116.085,97.476 115.700 C 97.375 115.315,97.293 115.630,97.293 116.400 M173.340 121.200 C 173.340 123.070,173.409 123.835,173.493 122.900 C 173.577 121.965,173.577 120.435,173.493 119.500 C 173.409 118.565,173.340 119.330,173.340 121.200 M220.909 119.600 C 220.909 120.590,220.987 120.995,221.082 120.500 C 221.178 120.005,221.178 119.195,221.082 118.700 C 220.987 118.205,220.909 118.610,220.909 119.600 M257.728 120.400 C 257.728 121.830,257.801 122.415,257.889 121.700 C 257.978 120.985,257.978 119.815,257.889 119.100 C 257.801 118.385,257.728 118.970,257.728 120.400 M97.293 122.800 C 97.293 123.570,97.375 123.885,97.476 123.500 C 97.576 123.115,97.576 122.485,97.476 122.100 C 97.375 121.715,97.293 122.030,97.293 122.800 M181.693 122.800 C 181.693 123.570,181.775 123.885,181.876 123.500 C 181.976 123.115,181.976 122.485,181.876 122.100 C 181.775 121.715,181.693 122.030,181.693 122.800 M220.909 126.000 C 220.909 126.990,220.987 127.395,221.082 126.900 C 221.178 126.405,221.178 125.595,221.082 125.100 C 220.987 124.605,220.909 125.010,220.909 126.000 M97.293 132.000 C 97.293 132.770,97.375 133.085,97.476 132.700 C 97.576 132.315,97.576 131.685,97.476 131.300 C 97.375 130.915,97.293 131.230,97.293 132.000 M48.900 139.094 C 49.945 139.176,51.655 139.176,52.700 139.094 C 53.745 139.012,52.890 138.944,50.800 138.944 C 48.710 138.944,47.855 139.012,48.900 139.094 M220.909 141.600 C 220.909 142.590,220.987 142.995,221.082 142.500 C 221.178 142.005,221.178 141.195,221.082 140.700 C 220.987 140.205,220.909 140.610,220.909 141.600 M103.905 140.683 C 104.402 140.779,105.122 140.775,105.505 140.675 C 105.887 140.575,105.480 140.496,104.600 140.501 C 103.720 140.505,103.407 140.587,103.905 140.683 M138.707 140.690 C 139.426 140.779,140.506 140.777,141.107 140.686 C 141.708 140.595,141.120 140.522,139.800 140.524 C 138.480 140.526,137.988 140.601,138.707 140.690 M196.700 140.682 C 197.195 140.778,198.005 140.778,198.500 140.682 C 198.995 140.587,198.590 140.509,197.600 140.509 C 196.610 140.509,196.205 140.587,196.700 140.682 M282.700 140.682 C 283.195 140.778,284.005 140.778,284.500 140.682 C 284.995 140.587,284.590 140.509,283.600 140.509 C 282.610 140.509,282.205 140.587,282.700 140.682 M48.700 147.089 C 49.415 147.178,50.585 147.178,51.300 147.089 C 52.015 147.001,51.430 146.928,50.000 146.928 C 48.570 146.928,47.985 147.001,48.700 147.089 M101.500 147.082 C 101.995 147.178,102.805 147.178,103.300 147.082 C 103.795 146.987,103.390 146.909,102.400 146.909 C 101.410 146.909,101.005 146.987,101.500 147.082 M137.500 147.082 C 137.995 147.178,138.805 147.178,139.300 147.082 C 139.795 146.987,139.390 146.909,138.400 146.909 C 137.410 146.909,137.005 146.987,137.500 147.082 M193.500 147.082 C 193.995 147.178,194.805 147.178,195.300 147.082 C 195.795 146.987,195.390 146.909,194.400 146.909 C 193.410 146.909,193.005 146.987,193.500 147.082 M281.500 147.089 C 282.215 147.178,283.385 147.178,284.100 147.089 C 284.815 147.001,284.230 146.928,282.800 146.928 C 281.370 146.928,280.785 147.001,281.500 147.089 M100.499 174.730 C 100.100 174.984,100.019 197.467,100.099 285.824 L 100.200 396.600 217.200 396.600 L 334.200 396.600 334.301 286.042 C 334.375 204.647,334.283 175.341,333.952 174.942 C 333.443 174.328,101.463 174.118,100.499 174.730 " stroke="#131313" fill="none" fill-rule="evenodd"/>
        <path id="path1" d="M212.667 72.267 C 212.520 72.413,212.400 78.713,212.400 86.267 C 212.400 101.426,212.454 101.153,209.978 98.551 C 203.583 91.831,189.134 92.435,181.421 99.746 C 173.360 107.387,171.103 124.374,176.622 135.868 C 182.397 147.895,199.436 150.749,209.233 141.330 C 212.273 138.407,212.400 138.433,212.400 141.987 C 212.400 145.360,212.660 145.600,216.306 145.600 C 221.359 145.600,220.800 150.198,220.800 108.629 C 220.800 76.040,220.738 72.462,220.167 72.243 C 219.308 71.913,213.000 71.933,212.667 72.267 M236.412 73.436 C 233.748 75.843,233.736 78.630,236.379 81.273 C 238.615 83.509,240.392 83.437,242.928 81.007 C 247.885 76.257,241.501 68.839,236.412 73.436 M50.800 73.845 C 41.486 75.603,34.904 80.117,32.400 86.465 C 29.845 92.942,31.808 100.753,37.101 105.170 C 37.925 105.858,38.870 106.659,39.200 106.951 C 39.530 107.242,40.700 107.988,41.800 108.608 C 42.900 109.228,44.074 109.965,44.408 110.246 C 44.742 110.528,48.072 112.325,51.808 114.240 C 63.150 120.055,65.944 123.095,65.511 129.150 C 64.758 139.672,50.624 142.387,34.678 135.073 C 31.364 133.552,31.215 133.683,31.206 138.126 C 31.199 141.916,31.495 142.531,33.914 143.755 C 44.267 148.993,62.370 147.331,68.980 140.535 C 72.962 136.442,73.961 134.164,74.214 128.600 C 74.626 119.553,69.648 113.921,54.286 106.056 C 43.772 100.674,41.178 98.501,40.406 94.429 C 40.187 93.279,39.909 92.176,39.786 91.977 C 39.663 91.779,39.788 90.848,40.062 89.908 C 42.527 81.474,54.968 78.802,68.333 83.836 C 71.898 85.178,71.988 85.099,71.988 80.600 C 71.988 76.429,71.948 76.380,67.269 74.747 C 65.030 73.965,53.506 73.334,50.800 73.845 M92.209 82.868 C 89.159 84.071,89.235 83.904,89.111 89.740 L 89.000 95.000 85.620 95.117 C 81.526 95.260,81.200 95.488,81.200 98.216 C 81.200 101.605,81.194 101.600,85.200 101.600 C 89.621 101.600,89.200 99.745,89.200 119.219 C 89.200 132.093,89.318 135.937,89.756 137.286 C 90.062 138.229,90.421 139.478,90.554 140.061 C 92.060 146.672,108.917 149.827,109.529 143.613 C 109.742 141.448,108.881 139.882,107.637 140.173 C 103.139 141.225,99.923 140.172,98.357 137.134 C 96.847 134.202,96.919 102.930,98.438 101.968 C 98.747 101.772,101.169 101.609,103.820 101.606 C 109.442 101.599,109.600 101.511,109.600 98.400 C 109.600 95.267,109.472 95.200,103.534 95.200 C 97.338 95.200,97.645 95.529,97.455 88.703 C 97.259 81.679,96.726 81.085,92.209 82.868 M279.772 93.993 C 276.766 94.417,272.928 95.513,271.600 96.327 C 264.676 100.569,263.114 102.157,260.502 107.606 C 257.003 114.907,257.173 127.728,260.854 134.192 C 261.483 135.296,262.111 136.436,262.251 136.725 C 264.039 140.424,270.779 144.951,276.400 146.229 C 297.260 150.970,312.626 133.613,307.213 111.423 C 306.733 109.456,306.061 107.304,305.718 106.642 C 304.475 104.237,301.932 100.825,300.483 99.616 C 299.667 98.936,298.730 98.137,298.400 97.840 C 295.307 95.059,285.937 93.124,279.772 93.993 M120.815 95.782 C 119.914 96.867,120.432 132.988,121.376 135.000 C 123.519 139.564,124.310 140.986,125.473 142.360 C 130.436 148.224,143.130 148.341,149.584 142.583 C 152.778 139.733,153.200 139.803,153.200 143.184 C 153.200 145.325,153.800 145.655,157.452 145.518 C 161.955 145.348,161.613 147.512,161.498 119.961 C 161.385 92.857,161.791 95.200,157.200 95.200 C 152.940 95.200,153.267 93.758,153.118 113.212 L 152.988 130.200 151.464 133.000 C 147.711 139.899,141.274 142.566,135.524 139.607 C 132.789 138.199,131.200 136.940,131.200 136.179 C 131.200 135.915,130.938 135.481,130.619 135.215 C 129.050 133.914,128.804 131.134,128.700 113.501 C 128.619 99.810,128.494 96.394,128.051 95.861 C 127.308 94.966,121.544 94.904,120.815 95.782 M236.480 95.680 C 235.715 96.445,235.794 144.531,236.562 145.169 C 237.722 146.131,243.305 145.546,243.888 144.400 C 244.659 142.884,244.434 96.805,243.651 95.861 C 242.975 95.047,237.257 94.903,236.480 95.680 M203.452 101.073 C 207.331 102.840,208.852 104.329,211.344 108.800 C 212.603 111.058,212.799 124.618,211.634 128.797 C 210.858 131.577,207.601 137.200,206.765 137.200 C 206.598 137.200,205.953 137.616,205.331 138.125 C 201.001 141.668,192.921 141.333,187.761 137.398 C 182.909 133.697,180.616 123.068,182.598 113.471 C 184.694 103.325,194.978 97.211,203.452 101.073 M289.771 101.188 C 294.160 103.069,297.826 107.059,298.602 110.800 C 298.762 111.570,299.054 112.402,299.252 112.648 C 300.374 114.045,300.034 125.123,298.726 129.800 C 294.934 143.357,274.378 144.411,268.202 131.366 C 266.485 127.739,265.866 119.931,266.826 114.012 C 268.520 103.573,280.159 97.068,289.771 101.188 " stroke="none" fill="#f5f5f5" fill-rule="evenodd"/>
        <path id="path2" d="M100.184 5.299 C 100.078 5.575,100.039 15.160,100.096 26.600 L 100.200 47.400 216.758 47.501 C 303.037 47.575,333.458 47.484,333.862 47.149 C 334.312 46.775,334.389 43.057,334.304 25.848 L 334.200 5.000 217.288 4.899 C 123.968 4.819,100.337 4.900,100.184 5.299 M238.900 71.876 C 239.285 71.976,239.915 71.976,240.300 71.876 C 240.685 71.775,240.370 71.693,239.600 71.693 C 238.830 71.693,238.515 71.775,238.900 71.876 M63.505 73.883 C 64.002 73.979,64.722 73.975,65.105 73.875 C 65.487 73.775,65.080 73.696,64.200 73.701 C 63.320 73.705,63.007 73.787,63.505 73.883 M220.901 79.000 C 220.905 79.880,220.987 80.193,221.083 79.695 C 221.179 79.198,221.175 78.478,221.075 78.095 C 220.975 77.713,220.896 78.120,220.901 79.000 M238.900 83.076 C 239.285 83.176,239.915 83.176,240.300 83.076 C 240.685 82.975,240.370 82.893,239.600 82.893 C 238.830 82.893,238.515 82.975,238.900 83.076 M220.909 85.200 C 220.909 86.190,220.987 86.595,221.082 86.100 C 221.178 85.605,221.178 84.795,221.082 84.300 C 220.987 83.805,220.909 84.210,220.909 85.200 M97.693 86.000 C 97.693 86.770,97.775 87.085,97.876 86.700 C 97.976 86.315,97.976 85.685,97.876 85.300 C 97.775 84.915,97.693 85.230,97.693 86.000 M97.720 91.600 C 97.720 92.810,97.795 93.305,97.887 92.700 C 97.978 92.095,97.978 91.105,97.887 90.500 C 97.795 89.895,97.720 90.390,97.720 91.600 M220.901 91.400 C 220.905 92.280,220.987 92.593,221.083 92.095 C 221.179 91.598,221.175 90.878,221.075 90.495 C 220.975 90.113,220.896 90.520,220.901 91.400 M120.183 112.600 C 120.183 121.840,120.236 125.563,120.300 120.873 C 120.364 116.183,120.364 108.623,120.299 104.073 C 120.235 99.523,120.183 103.360,120.183 112.600 M152.982 112.000 C 152.982 120.910,153.035 124.555,153.100 120.100 C 153.164 115.645,153.164 108.355,153.100 103.900 C 153.035 99.445,152.982 103.090,152.982 112.000 M220.909 97.600 C 220.909 98.590,220.987 98.995,221.082 98.500 C 221.178 98.005,221.178 97.195,221.082 96.700 C 220.987 96.205,220.909 96.610,220.909 97.600 M235.788 120.400 C 235.788 133.930,235.838 139.465,235.900 132.700 C 235.961 125.935,235.961 114.865,235.900 108.100 C 235.838 101.335,235.788 106.870,235.788 120.400 M209.800 98.400 C 210.659 99.280,211.452 100.000,211.562 100.000 C 211.672 100.000,211.059 99.280,210.200 98.400 C 209.341 97.520,208.548 96.800,208.438 96.800 C 208.328 96.800,208.941 97.520,209.800 98.400 M128.928 100.800 C 128.928 102.230,129.001 102.815,129.089 102.100 C 129.178 101.385,129.178 100.215,129.089 99.500 C 129.001 98.785,128.928 99.370,128.928 100.800 M161.709 100.000 C 161.709 100.990,161.787 101.395,161.882 100.900 C 161.978 100.405,161.978 99.595,161.882 99.100 C 161.787 98.605,161.709 99.010,161.709 100.000 M244.528 100.800 C 244.528 102.230,244.601 102.815,244.689 102.100 C 244.778 101.385,244.778 100.215,244.689 99.500 C 244.601 98.785,244.528 99.370,244.528 100.800 M264.400 101.000 C 263.428 101.990,262.723 102.800,262.833 102.800 C 262.943 102.800,263.828 101.990,264.800 101.000 C 265.772 100.010,266.477 99.200,266.367 99.200 C 266.257 99.200,265.372 100.010,264.400 101.000 M196.700 100.282 C 197.195 100.378,198.005 100.378,198.500 100.282 C 198.995 100.187,198.590 100.109,197.600 100.109 C 196.610 100.109,196.205 100.187,196.700 100.282 M282.700 100.282 C 283.195 100.378,284.005 100.378,284.500 100.282 C 284.995 100.187,284.590 100.109,283.600 100.109 C 282.610 100.109,282.205 100.187,282.700 100.282 M220.909 102.400 C 220.909 103.390,220.987 103.795,221.082 103.300 C 221.178 102.805,221.178 101.995,221.082 101.500 C 220.987 101.005,220.909 101.410,220.909 102.400 M83.500 101.893 C 84.435 101.977,85.965 101.977,86.900 101.893 C 87.835 101.809,87.070 101.740,85.200 101.740 C 83.330 101.740,82.565 101.809,83.500 101.893 M101.500 101.896 C 102.875 101.974,105.125 101.974,106.500 101.896 C 107.875 101.818,106.750 101.754,104.000 101.754 C 101.250 101.754,100.125 101.818,101.500 101.896 M35.983 104.500 C 36.964 105.545,37.819 106.400,37.883 106.400 C 38.184 106.400,37.866 106.041,36.100 104.383 L 34.200 102.600 35.983 104.500 M161.709 104.800 C 161.709 105.790,161.787 106.195,161.882 105.700 C 161.978 105.205,161.978 104.395,161.882 103.900 C 161.787 103.405,161.709 103.810,161.709 104.800 M187.178 104.700 L 185.800 106.200 187.300 104.822 C 188.125 104.063,188.800 103.388,188.800 103.322 C 188.800 103.016,188.462 103.304,187.178 104.700 M97.693 104.800 C 97.693 105.570,97.775 105.885,97.876 105.500 C 97.976 105.115,97.976 104.485,97.876 104.100 C 97.775 103.715,97.693 104.030,97.693 104.800 M128.931 107.000 C 128.933 108.540,129.005 109.121,129.092 108.291 C 129.179 107.461,129.177 106.201,129.089 105.491 C 129.000 104.781,128.929 105.460,128.931 107.000 M244.514 106.200 C 244.517 107.300,244.595 107.703,244.687 107.095 C 244.779 106.486,244.777 105.586,244.682 105.095 C 244.587 104.603,244.511 105.100,244.514 106.200 M220.901 107.000 C 220.905 107.880,220.987 108.193,221.083 107.695 C 221.179 107.198,221.175 106.478,221.075 106.095 C 220.975 105.713,220.896 106.120,220.901 107.000 M161.731 110.200 C 161.733 111.740,161.805 112.321,161.892 111.491 C 161.979 110.661,161.977 109.401,161.889 108.691 C 161.800 107.981,161.729 108.660,161.731 110.200 M97.693 109.600 C 97.693 110.370,97.775 110.685,97.876 110.300 C 97.976 109.915,97.976 109.285,97.876 108.900 C 97.775 108.515,97.693 108.830,97.693 109.600 M244.514 111.000 C 244.517 112.100,244.595 112.503,244.687 111.895 C 244.779 111.286,244.777 110.386,244.682 109.895 C 244.587 109.403,244.511 109.900,244.514 111.000 M211.552 110.887 C 211.737 111.998,211.793 112.055,211.919 111.254 C 212.001 110.733,211.903 110.143,211.701 109.941 C 211.479 109.719,211.421 110.093,211.552 110.887 M220.901 111.800 C 220.905 112.680,220.987 112.993,221.083 112.495 C 221.179 111.998,221.175 111.278,221.075 110.895 C 220.975 110.513,220.896 110.920,220.901 111.800 M128.914 112.600 C 128.917 113.700,128.995 114.103,129.087 113.495 C 129.179 112.886,129.177 111.986,129.082 111.495 C 128.987 111.003,128.911 111.500,128.914 112.600 M97.693 114.000 C 97.693 114.770,97.775 115.085,97.876 114.700 C 97.976 114.315,97.976 113.685,97.876 113.300 C 97.775 112.915,97.693 113.230,97.693 114.000 M258.093 114.000 C 258.093 114.770,258.175 115.085,258.276 114.700 C 258.376 114.315,258.376 113.685,258.276 113.300 C 258.175 112.915,258.093 113.230,258.093 114.000 M68.600 115.200 C 69.683 116.300,70.660 117.200,70.770 117.200 C 70.880 117.200,70.083 116.300,69.000 115.200 C 67.917 114.100,66.940 113.200,66.830 113.200 C 66.720 113.200,67.517 114.100,68.600 115.200 M161.728 116.400 C 161.728 117.830,161.801 118.415,161.889 117.700 C 161.978 116.985,161.978 115.815,161.889 115.100 C 161.801 114.385,161.728 114.970,161.728 116.400 M244.528 116.400 C 244.528 117.830,244.601 118.415,244.689 117.700 C 244.778 116.985,244.778 115.815,244.689 115.100 C 244.601 114.385,244.528 114.970,244.528 116.400 M220.909 116.400 C 220.909 117.390,220.987 117.795,221.082 117.300 C 221.178 116.805,221.178 115.995,221.082 115.500 C 220.987 115.005,220.909 115.410,220.909 116.400 M128.909 117.200 C 128.909 118.190,128.987 118.595,129.082 118.100 C 129.178 117.605,129.178 116.795,129.082 116.300 C 128.987 115.805,128.909 116.210,128.909 117.200 M182.134 118.800 C 182.134 120.450,182.205 121.125,182.291 120.300 C 182.378 119.475,182.378 118.125,182.291 117.300 C 182.205 116.475,182.134 117.150,182.134 118.800 M266.551 120.400 C 266.551 122.930,266.616 123.965,266.696 122.700 C 266.775 121.435,266.775 119.365,266.696 118.100 C 266.616 116.835,266.551 117.870,266.551 120.400 M299.740 120.400 C 299.740 122.270,299.809 123.035,299.893 122.100 C 299.977 121.165,299.977 119.635,299.893 118.700 C 299.809 117.765,299.740 118.530,299.740 120.400 M308.528 119.600 C 308.528 121.030,308.601 121.615,308.689 120.900 C 308.778 120.185,308.778 119.015,308.689 118.300 C 308.601 117.585,308.528 118.170,308.528 119.600 M97.720 119.600 C 97.720 120.810,97.795 121.305,97.887 120.700 C 97.978 120.095,97.978 119.105,97.887 118.500 C 97.795 117.895,97.720 118.390,97.720 119.600 M128.928 122.800 C 128.928 124.230,129.001 124.815,129.089 124.100 C 129.178 123.385,129.178 122.215,129.089 121.500 C 129.001 120.785,128.928 121.370,128.928 122.800 M161.728 122.800 C 161.728 124.230,161.801 124.815,161.889 124.100 C 161.978 123.385,161.978 122.215,161.889 121.500 C 161.801 120.785,161.728 121.370,161.728 122.800 M244.528 122.800 C 244.528 124.230,244.601 124.815,244.689 124.100 C 244.778 123.385,244.778 122.215,244.689 121.500 C 244.601 120.785,244.528 121.370,244.528 122.800 M220.909 122.800 C 220.909 123.790,220.987 124.195,221.082 123.700 C 221.178 123.205,221.178 122.395,221.082 121.900 C 220.987 121.405,220.909 121.810,220.909 122.800 M97.693 125.200 C 97.693 125.970,97.775 126.285,97.876 125.900 C 97.976 125.515,97.976 124.885,97.876 124.500 C 97.775 124.115,97.693 124.430,97.693 125.200 M182.093 125.200 C 182.093 125.970,182.175 126.285,182.276 125.900 C 182.376 125.515,182.376 124.885,182.276 124.500 C 182.175 124.115,182.093 124.430,182.093 125.200 M128.924 128.600 C 128.926 129.920,129.001 130.412,129.090 129.693 C 129.179 128.974,129.177 127.894,129.086 127.293 C 128.995 126.692,128.922 127.280,128.924 128.600 M161.731 129.000 C 161.733 130.540,161.805 131.121,161.892 130.291 C 161.979 129.461,161.977 128.201,161.889 127.491 C 161.800 126.781,161.729 127.460,161.731 129.000 M244.514 128.200 C 244.517 129.300,244.595 129.703,244.687 129.095 C 244.779 128.486,244.777 127.586,244.682 127.095 C 244.587 126.603,244.511 127.100,244.514 128.200 M220.901 129.000 C 220.905 129.880,220.987 130.193,221.083 129.695 C 221.179 129.198,221.175 128.478,221.075 128.095 C 220.975 127.713,220.896 128.120,220.901 129.000 M97.693 129.600 C 97.693 130.370,97.775 130.685,97.876 130.300 C 97.976 129.915,97.976 129.285,97.876 128.900 C 97.775 128.515,97.693 128.830,97.693 129.600 M120.509 132.000 C 120.509 132.990,120.587 133.395,120.682 132.900 C 120.778 132.405,120.778 131.595,120.682 131.100 C 120.587 130.605,120.509 131.010,120.509 132.000 M244.509 132.800 C 244.509 133.790,244.587 134.195,244.682 133.700 C 244.778 133.205,244.778 132.395,244.682 131.900 C 244.587 131.405,244.509 131.810,244.509 132.800 M220.909 133.600 C 220.909 134.590,220.987 134.995,221.082 134.500 C 221.178 134.005,221.178 133.195,221.082 132.700 C 220.987 132.205,220.909 132.610,220.909 133.600 M161.709 134.400 C 161.709 135.390,161.787 135.795,161.882 135.300 C 161.978 134.805,161.978 133.995,161.882 133.500 C 161.787 133.005,161.709 133.410,161.709 134.400 M97.693 134.400 C 97.693 135.170,97.775 135.485,97.876 135.100 C 97.976 134.715,97.976 134.085,97.876 133.700 C 97.775 133.315,97.693 133.630,97.693 134.400 M62.000 135.660 C 61.230 136.335,60.962 136.705,61.404 136.481 C 62.135 136.111,63.947 134.378,63.562 134.416 C 63.473 134.425,62.770 134.985,62.000 135.660 M294.581 136.100 L 293.000 137.800 294.700 136.219 C 296.281 134.748,296.584 134.400,296.281 134.400 C 296.216 134.400,295.451 135.165,294.581 136.100 M244.528 138.400 C 244.528 139.830,244.601 140.415,244.689 139.700 C 244.778 138.985,244.778 137.815,244.689 137.100 C 244.601 136.385,244.528 136.970,244.528 138.400 M220.909 138.400 C 220.909 139.390,220.987 139.795,221.082 139.300 C 221.178 138.805,221.178 137.995,221.082 137.500 C 220.987 137.005,220.909 137.410,220.909 138.400 M161.709 139.200 C 161.709 140.190,161.787 140.595,161.882 140.100 C 161.978 139.605,161.978 138.795,161.882 138.300 C 161.787 137.805,161.709 138.210,161.709 139.200 M301.381 139.700 L 299.800 141.400 301.500 139.819 C 303.081 138.348,303.384 138.000,303.081 138.000 C 303.016 138.000,302.251 138.765,301.381 139.700 M209.978 140.700 L 208.600 142.200 210.100 140.822 C 211.496 139.538,211.784 139.200,211.478 139.200 C 211.412 139.200,210.737 139.875,209.978 140.700 M68.975 140.900 L 67.800 142.200 69.100 141.025 C 70.312 139.930,70.584 139.600,70.275 139.600 C 70.206 139.600,69.621 140.185,68.975 140.900 M149.381 142.900 L 147.800 144.600 149.500 143.019 C 151.081 141.548,151.384 141.200,151.081 141.200 C 151.016 141.200,150.251 141.965,149.381 142.900 M152.914 143.000 C 152.917 144.100,152.995 144.503,153.087 143.895 C 153.179 143.286,153.177 142.386,153.082 141.895 C 152.987 141.403,152.911 141.900,152.914 143.000 M124.400 141.725 C 124.400 141.794,124.985 142.379,125.700 143.025 L 127.000 144.200 125.825 142.900 C 124.730 141.688,124.400 141.416,124.400 141.725 M289.200 146.400 L 287.800 146.695 289.076 146.747 C 289.778 146.776,290.464 146.620,290.600 146.400 C 290.736 146.180,290.792 146.024,290.724 146.053 C 290.656 146.082,289.970 146.238,289.200 146.400 M41.700 146.676 C 42.085 146.776,42.715 146.776,43.100 146.676 C 43.485 146.575,43.170 146.493,42.400 146.493 C 41.630 146.493,41.315 146.575,41.700 146.676 M55.700 146.676 C 56.085 146.776,56.715 146.776,57.100 146.676 C 57.485 146.575,57.170 146.493,56.400 146.493 C 55.630 146.493,55.315 146.575,55.700 146.676 " stroke="#131313" fill="none" fill-rule="evenodd"/>
        <path id="path3" d="M33.600 23.000 L 33.600 46.000 16.800 46.000 L 0.000 46.000 0.000 110.800 L 0.000 175.600 16.800 175.600 L 33.600 175.600 33.600 287.800 L 33.600 400.000 42.200 400.000 L 50.800 400.000 50.800 392.600 L 50.800 385.200 67.200 385.200 L 83.600 385.200 83.600 392.600 L 83.600 400.000 217.200 400.000 L 350.800 400.000 350.800 392.600 L 350.800 385.200 367.200 385.200 L 383.600 385.200 383.600 392.600 L 383.600 400.000 391.800 400.000 L 400.000 400.000 400.000 200.000 L 400.000 0.000 391.800 0.000 L 383.600 0.000 383.600 5.800 L 383.600 11.600 367.200 11.600 L 350.800 11.600 350.800 5.800 L 350.800 0.000 217.200 0.000 L 83.600 0.000 83.600 5.800 L 83.600 11.600 67.200 11.600 L 50.800 11.600 50.800 5.800 L 50.800 0.000 42.200 0.000 L 33.600 0.000 33.600 23.000 M334.304 25.848 C 334.389 43.057,334.312 46.775,333.862 47.149 C 333.458 47.484,303.037 47.575,216.758 47.501 L 100.200 47.400 100.096 26.600 C 100.039 15.160,100.078 5.575,100.184 5.299 C 100.337 4.900,123.968 4.819,217.288 4.899 L 334.200 5.000 334.304 25.848 M83.600 40.600 L 83.600 46.000 67.200 46.000 L 50.800 46.000 50.800 40.600 L 50.800 35.200 67.200 35.200 L 83.600 35.200 83.600 40.600 M383.600 48.400 L 383.600 61.600 367.200 61.600 L 350.800 61.600 350.800 48.400 L 350.800 35.200 367.200 35.200 L 383.600 35.200 383.600 48.400 M220.400 71.991 C 221.140 72.459,221.541 142.650,220.815 144.561 L 220.409 145.629 216.504 145.515 L 212.600 145.400 212.400 142.400 C 212.165 138.873,212.164 138.872,209.253 141.672 C 199.685 150.875,182.918 148.337,176.600 136.729 C 172.419 129.047,172.183 113.682,176.140 106.814 C 180.000 100.116,182.073 97.988,187.000 95.665 C 194.602 92.080,204.586 93.175,209.936 98.179 C 211.002 99.176,211.993 99.874,212.137 99.729 C 212.282 99.585,212.400 93.302,212.400 85.767 C 212.400 75.181,212.514 72.021,212.900 71.865 C 213.800 71.502,219.785 71.603,220.400 71.991 M241.886 72.300 C 246.427 74.795,245.728 81.436,240.758 83.013 C 236.023 84.516,232.120 77.284,235.694 73.628 C 237.796 71.479,239.663 71.078,241.886 72.300 M63.200 73.572 C 64.630 73.753,66.430 74.131,67.200 74.411 C 67.970 74.691,69.110 75.101,69.734 75.323 C 71.779 76.049,72.000 76.559,71.994 80.529 C 71.986 85.337,71.928 85.410,68.974 84.380 C 59.111 80.940,49.583 80.692,45.600 83.771 C 45.270 84.026,44.550 84.459,44.000 84.733 C 38.233 87.610,39.808 98.049,46.555 101.671 C 47.097 101.962,50.659 103.792,54.470 105.737 C 58.282 107.683,61.760 109.593,62.200 109.983 C 62.640 110.373,63.810 111.158,64.800 111.728 C 68.130 113.645,73.596 120.142,73.602 122.191 C 73.604 122.636,73.861 123.491,74.174 124.091 C 76.173 127.923,73.675 136.389,69.254 140.765 C 62.388 147.561,45.058 149.361,34.502 144.375 C 31.240 142.834,31.199 142.761,31.206 138.438 C 31.214 133.251,31.350 133.093,34.408 134.708 C 35.754 135.418,37.064 136.000,37.320 136.000 C 37.575 136.000,38.688 136.346,39.792 136.769 C 55.398 142.744,69.610 135.250,64.100 123.951 C 62.423 120.514,60.361 118.950,51.653 114.514 C 47.994 112.649,44.722 110.877,44.381 110.574 C 44.041 110.271,42.871 109.550,41.781 108.972 C 40.692 108.394,39.530 107.676,39.200 107.377 C 38.870 107.078,37.824 106.165,36.876 105.349 C 27.694 97.439,29.631 83.120,40.721 76.918 C 46.465 73.705,54.659 72.486,63.200 73.572 M97.048 82.617 C 97.556 83.392,97.747 84.819,97.853 88.636 C 98.045 95.518,97.702 95.153,104.108 95.288 L 109.400 95.400 109.519 98.136 C 109.687 101.999,109.686 102.000,103.569 102.000 L 98.436 102.000 98.137 103.500 C 97.500 106.698,97.816 135.273,98.506 136.878 C 99.664 139.573,103.903 141.065,107.108 139.906 C 108.909 139.255,109.600 140.127,109.600 143.049 C 109.600 148.772,97.096 148.803,92.286 143.092 C 89.058 139.258,89.020 138.991,88.878 119.300 L 88.754 102.000 85.426 102.000 C 81.328 102.000,81.121 101.807,81.281 98.136 L 81.400 95.400 85.000 95.200 L 88.600 95.000 88.800 89.713 C 89.026 83.748,89.048 83.700,92.200 82.465 C 95.046 81.350,96.242 81.388,97.048 82.617 M383.600 98.400 L 383.600 111.600 367.200 111.600 L 350.800 111.600 350.800 98.400 L 350.800 85.200 367.200 85.200 L 383.600 85.200 383.600 98.400 M292.600 94.748 C 295.094 95.600,297.464 96.719,298.436 97.504 C 304.616 102.496,307.141 107.188,308.418 116.058 C 308.932 119.626,308.211 128.461,307.259 130.272 C 307.049 130.672,306.184 132.424,305.338 134.164 C 302.766 139.454,297.770 143.922,292.544 145.607 C 291.695 145.880,290.762 146.293,290.472 146.524 C 289.485 147.309,277.743 147.095,275.000 146.241 C 266.733 143.670,260.692 137.484,258.541 129.390 C 256.529 121.817,258.148 108.925,261.604 105.000 C 261.991 104.560,262.428 103.805,262.574 103.322 C 262.882 102.304,267.014 98.400,267.783 98.400 C 268.069 98.400,268.538 98.115,268.827 97.767 C 269.923 96.447,274.602 94.526,278.400 93.838 C 281.061 93.355,290.246 93.944,292.600 94.748 M128.451 95.861 C 128.895 96.396,129.012 99.728,129.064 113.226 C 129.131 130.664,129.375 133.687,130.812 134.918 C 131.245 135.289,131.600 135.843,131.600 136.149 C 131.600 136.455,132.185 137.146,132.900 137.684 C 139.591 142.724,147.290 140.662,151.134 132.800 L 152.600 129.800 152.717 113.021 C 152.852 93.632,152.457 95.200,157.200 95.200 C 162.265 95.200,161.792 92.674,161.852 120.031 C 161.913 147.713,162.320 145.356,157.450 145.516 C 153.211 145.656,152.800 145.412,152.800 142.751 C 152.800 140.280,152.422 140.285,149.774 142.790 C 143.706 148.528,132.149 148.720,125.848 143.188 C 123.595 141.211,120.762 135.045,120.364 131.255 C 119.822 126.096,119.919 96.241,120.480 95.680 C 121.267 94.893,127.770 95.041,128.451 95.861 M244.051 95.861 C 244.790 96.752,244.970 143.004,244.240 144.472 C 243.704 145.551,237.287 146.102,236.160 145.167 C 235.394 144.531,235.316 96.444,236.080 95.680 C 236.867 94.893,243.370 95.041,244.051 95.861 M194.400 100.653 C 189.607 101.584,183.940 107.552,183.055 112.600 C 181.800 119.759,182.180 128.201,183.901 131.359 C 187.306 137.610,190.289 139.731,196.437 140.273 C 206.188 141.133,212.400 132.904,212.400 119.129 C 212.400 105.679,205.418 98.512,194.400 100.653 M278.167 101.155 C 272.580 102.865,268.147 107.939,267.213 113.694 C 264.522 130.278,271.710 141.271,284.600 140.285 C 294.705 139.512,299.341 133.270,299.370 120.400 C 299.404 105.280,290.650 97.334,278.167 101.155 M383.600 148.400 L 383.600 161.600 367.200 161.600 L 350.800 161.600 350.800 148.400 L 350.800 135.200 367.200 135.200 L 383.600 135.200 383.600 148.400 M333.952 174.942 C 334.283 175.341,334.375 204.647,334.301 286.042 L 334.200 396.600 217.200 396.600 L 100.200 396.600 100.099 285.824 C 100.019 197.467,100.100 174.984,100.499 174.730 C 101.463 174.118,333.443 174.328,333.952 174.942 M83.600 198.400 L 83.600 211.600 67.200 211.600 L 50.800 211.600 50.800 198.400 L 50.800 185.200 67.200 185.200 L 83.600 185.200 83.600 198.400 M383.600 198.400 L 383.600 211.600 367.200 211.600 L 350.800 211.600 350.800 198.400 L 350.800 185.200 367.200 185.200 L 383.600 185.200 383.600 198.400 M83.600 248.400 L 83.600 261.600 67.200 261.600 L 50.800 261.600 50.800 248.400 L 50.800 235.200 67.200 235.200 L 83.600 235.200 83.600 248.400 M383.600 248.400 L 383.600 261.600 367.200 261.600 L 350.800 261.600 350.800 248.400 L 350.800 235.200 367.200 235.200 L 383.600 235.200 383.600 248.400 M83.600 298.400 L 83.600 311.600 67.200 311.600 L 50.800 311.600 50.800 298.400 L 50.800 285.200 67.200 285.200 L 83.600 285.200 83.600 298.400 M383.600 298.400 L 383.600 311.600 367.200 311.600 L 350.800 311.600 350.800 298.400 L 350.800 285.200 367.200 285.200 L 383.600 285.200 383.600 298.400 M83.600 348.400 L 83.600 361.600 67.200 361.600 L 50.800 361.600 50.800 348.400 L 50.800 335.200 67.200 335.200 L 83.600 335.200 83.600 348.400 M383.600 348.400 L 383.600 361.600 367.200 361.600 L 350.800 361.600 350.800 348.400 L 350.800 335.200 367.200 335.200 L 383.600 335.200 383.600 348.400 " stroke="none" fill="#131313" fill-rule="evenodd"/>
    </g>
</svg>
