<?xml version="1.0" encoding="UTF-8"?>
<svg xmlns="http://www.w3.org/2000/svg" xmlns:xlink="http://www.w3.org/1999/xlink" width="128" height="128" viewBox="0 0 96 96" version="1.1">
    <g id="surface1">
        <path style="stroke:none;fill-rule:evenodd;fill:none;fill-opacity:1" d="M 58.078125 15.265625 C 58.078125 15.324219 57.617188 15.359375 56.878906 15.359375 C 56.144531 15.359375 55.679688 15.398438 55.679688 15.457031 C 55.679688 15.515625 55.28125 15.550781 54.671875 15.550781 C 54.0625 15.550781 53.664062 15.589844 53.664062 15.648438 C 53.664062 15.703125 53.34375 15.742188 52.894531 15.742188 C 52.449219 15.742188 52.128906 15.785156 52.128906 15.839844 C 52.128906 15.894531 51.839844 15.9375 51.457031 15.9375 C 51.070312 15.9375 50.785156 15.976562 50.785156 16.03125 C 50.785156 16.085938 50.546875 16.128906 50.257812 16.128906 C 49.964844 16.128906 49.726562 16.171875 49.726562 16.222656 C 49.726562 16.277344 49.511719 16.320312 49.246094 16.320312 C 48.984375 16.320312 48.769531 16.363281 48.769531 16.414062 C 48.769531 16.46875 48.570312 16.511719 48.332031 16.511719 C 47.917969 16.511719 47.859375 16.546875 47.246094 17.167969 C 46.890625 17.53125 46.480469 17.855469 46.335938 17.890625 C 46.027344 17.96875 45.023438 18.933594 45.023438 19.148438 C 45.023438 19.230469 44.980469 19.296875 44.929688 19.296875 C 44.875 19.296875 44.832031 19.363281 44.832031 19.441406 C 44.832031 19.632812 43.632812 20.832031 43.441406 20.832031 C 43.363281 20.832031 43.296875 20.875 43.296875 20.929688 C 43.296875 20.980469 43.230469 21.023438 43.148438 21.023438 C 42.933594 21.023438 41.96875 22.027344 41.894531 22.332031 C 41.816406 22.632812 40.683594 23.808594 40.464844 23.808594 C 40.386719 23.808594 40.320312 23.851562 40.320312 23.902344 C 40.320312 23.957031 40.253906 24 40.175781 24 C 39.984375 24 38.976562 25.007812 38.976562 25.199219 C 38.976562 25.277344 38.933594 25.34375 38.878906 25.34375 C 38.828125 25.34375 38.785156 25.421875 38.785156 25.515625 C 38.785156 25.609375 38.691406 25.75 38.578125 25.828125 C 38.316406 26.007812 38.007812 26.316406 37.828125 26.578125 C 37.75 26.691406 37.609375 26.785156 37.515625 26.785156 C 37.421875 26.785156 37.34375 26.828125 37.34375 26.878906 C 37.34375 26.933594 37.277344 26.976562 37.199219 26.976562 C 37.007812 26.976562 36 27.984375 36 28.175781 C 36 28.253906 35.957031 28.320312 35.902344 28.320312 C 35.851562 28.320312 35.808594 28.386719 35.808594 28.464844 C 35.808594 28.683594 34.632812 29.816406 34.332031 29.894531 C 34.027344 29.96875 33.023438 30.933594 33.023438 31.148438 C 33.023438 31.230469 32.980469 31.296875 32.929688 31.296875 C 32.875 31.296875 32.832031 31.363281 32.832031 31.441406 C 32.832031 31.632812 31.632812 32.832031 31.441406 32.832031 C 31.363281 32.832031 31.296875 32.875 31.296875 32.929688 C 31.296875 32.980469 31.230469 33.023438 31.148438 33.023438 C 30.933594 33.023438 29.96875 34.027344 29.894531 34.332031 C 29.816406 34.632812 28.683594 35.808594 28.464844 35.808594 C 28.386719 35.808594 28.320312 35.851562 28.320312 35.902344 C 28.320312 35.957031 28.253906 36 28.175781 36 C 27.984375 36 26.976562 37.007812 26.976562 37.199219 C 26.976562 37.277344 26.933594 37.34375 26.878906 37.34375 C 26.828125 37.34375 26.785156 37.421875 26.785156 37.515625 C 26.785156 37.609375 26.691406 37.75 26.578125 37.828125 C 26.316406 38.007812 26.007812 38.316406 25.828125 38.578125 C 25.75 38.691406 25.609375 38.785156 25.515625 38.785156 C 25.421875 38.785156 25.34375 38.828125 25.34375 38.878906 C 25.34375 38.933594 25.277344 38.976562 25.199219 38.976562 C 25.007812 38.976562 24 39.984375 24 40.175781 C 24 40.253906 23.957031 40.320312 23.902344 40.320312 C 23.851562 40.320312 23.808594 40.386719 23.808594 40.464844 C 23.808594 40.683594 22.632812 41.816406 22.332031 41.894531 C 22.027344 41.96875 21.023438 42.933594 21.023438 43.148438 C 21.023438 43.230469 20.980469 43.296875 20.929688 43.296875 C 20.875 43.296875 20.832031 43.363281 20.832031 43.441406 C 20.832031 43.632812 19.632812 44.832031 19.441406 44.832031 C 19.363281 44.832031 19.296875 44.875 19.296875 44.929688 C 19.296875 44.980469 19.230469 45.023438 19.148438 45.023438 C 18.933594 45.023438 17.96875 46.027344 17.894531 46.332031 C 17.816406 46.632812 16.683594 47.808594 16.464844 47.808594 C 16.386719 47.808594 16.320312 47.851562 16.320312 47.902344 C 16.320312 47.957031 16.253906 48 16.175781 48 C 15.984375 48 14.976562 49.007812 14.976562 49.199219 C 14.976562 49.277344 14.933594 49.34375 14.878906 49.34375 C 14.828125 49.34375 14.785156 49.421875 14.785156 49.515625 C 14.785156 49.609375 14.691406 49.75 14.578125 49.828125 C 14.316406 50.007812 14.007812 50.316406 13.828125 50.578125 C 13.75 50.691406 13.609375 50.785156 13.515625 50.785156 C 13.421875 50.785156 13.34375 50.828125 13.34375 50.878906 C 13.34375 50.933594 13.277344 50.976562 13.199219 50.976562 C 13.007812 50.976562 12 51.984375 12 52.175781 C 12 52.253906 11.957031 52.320312 11.902344 52.320312 C 11.851562 52.320312 11.808594 52.386719 11.808594 52.464844 C 11.808594 52.683594 10.632812 53.816406 10.332031 53.894531 C 10.027344 53.96875 9.023438 54.933594 9.023438 55.148438 C 9.023438 55.230469 8.980469 55.296875 8.929688 55.296875 C 8.875 55.296875 8.832031 55.363281 8.832031 55.441406 C 8.832031 55.632812 7.632812 56.832031 7.441406 56.832031 C 7.363281 56.832031 7.296875 56.875 7.296875 56.929688 C 7.296875 56.980469 7.230469 57.023438 7.148438 57.023438 C 6.933594 57.023438 5.96875 58.027344 5.890625 58.335938 C 5.855469 58.480469 5.53125 58.890625 5.167969 59.246094 C 4.546875 59.859375 4.511719 59.917969 4.511719 60.332031 C 4.511719 60.570312 4.46875 60.769531 4.414062 60.769531 C 4.363281 60.769531 4.320312 60.984375 4.320312 61.246094 C 4.320312 61.511719 4.277344 61.726562 4.222656 61.726562 C 4.171875 61.726562 4.128906 61.964844 4.128906 62.257812 C 4.128906 62.546875 4.085938 62.785156 4.03125 62.785156 C 3.976562 62.785156 3.9375 63.070312 3.9375 63.457031 C 3.9375 63.839844 3.894531 64.128906 3.839844 64.128906 C 3.785156 64.128906 3.742188 64.449219 3.742188 64.894531 C 3.742188 65.34375 3.703125 65.664062 3.648438 65.664062 C 3.589844 65.664062 3.550781 66.0625 3.550781 66.671875 C 3.550781 67.28125 3.515625 67.679688 3.457031 67.679688 C 3.398438 67.679688 3.359375 68.144531 3.359375 68.878906 C 3.359375 69.617188 3.324219 70.078125 3.265625 70.078125 C 3.203125 70.078125 3.167969 70.800781 3.167969 72.046875 C 3.167969 73.296875 3.203125 74.015625 3.265625 74.015625 C 3.324219 74.015625 3.359375 74.492188 3.359375 75.257812 C 3.359375 76.152344 3.394531 76.511719 3.480469 76.550781 C 3.574219 76.597656 3.574219 76.621094 3.480469 76.664062 C 3.394531 76.703125 3.359375 77.050781 3.359375 77.910156 C 3.359375 78.644531 3.324219 79.105469 3.265625 79.105469 C 3.085938 79.105469 3.164062 79.632812 3.359375 79.777344 C 3.464844 79.851562 3.550781 79.972656 3.550781 80.042969 C 3.550781 80.207031 3.984375 80.640625 4.152344 80.640625 C 4.21875 80.640625 4.339844 80.726562 4.414062 80.832031 C 4.558594 81.03125 5.089844 81.105469 5.089844 80.929688 C 5.089844 80.871094 5.550781 80.832031 6.289062 80.832031 C 7.023438 80.832031 7.488281 80.792969 7.488281 80.734375 C 7.488281 80.675781 8.527344 80.640625 10.414062 80.640625 C 12.304688 80.640625 13.34375 80.605469 13.34375 80.542969 C 13.34375 80.492188 13.472656 80.449219 13.632812 80.449219 C 13.789062 80.449219 13.921875 80.40625 13.921875 80.351562 C 13.921875 80.300781 13.984375 80.257812 14.0625 80.257812 C 14.144531 80.257812 14.207031 80.210938 14.207031 80.160156 C 14.207031 80.105469 14.292969 80.0625 14.398438 80.0625 C 14.503906 80.0625 14.59375 80.019531 14.59375 79.96875 C 14.59375 79.914062 14.660156 79.871094 14.742188 79.871094 C 14.917969 79.871094 15.167969 79.648438 15.167969 79.492188 C 15.167969 79.332031 16.394531 78.144531 16.558594 78.144531 C 16.636719 78.144531 16.703125 78.101562 16.703125 78.046875 C 16.703125 77.996094 16.789062 77.953125 16.894531 77.953125 C 17.140625 77.953125 17.953125 77.140625 17.953125 76.894531 C 17.953125 76.789062 17.996094 76.703125 18.046875 76.703125 C 18.101562 76.703125 18.144531 76.636719 18.144531 76.558594 C 18.144531 76.367188 19.34375 75.167969 19.535156 75.167969 C 19.613281 75.167969 19.679688 75.125 19.679688 75.070312 C 19.679688 75.019531 19.746094 74.976562 19.824219 74.976562 C 19.988281 74.976562 21.023438 73.980469 21.023438 73.824219 C 21.023438 73.773438 21.066406 73.726562 21.121094 73.726562 C 21.171875 73.726562 21.214844 73.660156 21.214844 73.582031 C 21.214844 73.5 21.398438 73.25 21.625 73.019531 C 21.847656 72.792969 22.09375 72.511719 22.171875 72.398438 C 22.25 72.285156 22.390625 72.191406 22.484375 72.191406 C 22.578125 72.191406 22.65625 72.148438 22.65625 72.097656 C 22.65625 72.042969 22.785156 72 22.945312 72 C 23.101562 72 23.230469 71.957031 23.230469 71.902344 C 23.230469 71.851562 23.320312 71.808594 23.425781 71.808594 C 23.53125 71.808594 23.617188 71.765625 23.617188 71.710938 C 23.617188 71.660156 23.679688 71.617188 23.761719 71.617188 C 23.839844 71.617188 24.269531 71.257812 24.714844 70.824219 C 25.585938 69.972656 25.785156 69.792969 25.867188 69.792969 C 25.96875 69.792969 27.742188 67.972656 27.742188 67.871094 C 27.742188 67.742188 28.765625 66.71875 28.894531 66.71875 C 29.027344 66.71875 30.71875 65.027344 30.71875 64.894531 C 30.71875 64.765625 31.742188 63.742188 31.871094 63.742188 C 31.972656 63.742188 33.792969 61.96875 33.792969 61.867188 C 33.792969 61.734375 34.714844 60.769531 34.839844 60.769531 C 34.976562 60.769531 36.769531 58.976562 36.769531 58.839844 C 36.769531 58.714844 37.734375 57.792969 37.867188 57.792969 C 37.96875 57.792969 39.742188 55.972656 39.742188 55.871094 C 39.742188 55.742188 40.765625 54.71875 40.894531 54.71875 C 41.027344 54.71875 42.71875 53.027344 42.71875 52.894531 C 42.71875 52.765625 43.742188 51.742188 43.871094 51.742188 C 43.972656 51.742188 45.792969 49.96875 45.792969 49.867188 C 45.792969 49.734375 46.714844 48.769531 46.839844 48.769531 C 46.976562 48.769531 48.769531 46.976562 48.769531 46.839844 C 48.769531 46.714844 49.734375 45.792969 49.867188 45.792969 C 49.96875 45.792969 51.742188 43.972656 51.742188 43.871094 C 51.742188 43.742188 52.765625 42.71875 52.894531 42.71875 C 53.027344 42.71875 54.71875 41.027344 54.71875 40.894531 C 54.71875 40.765625 55.742188 39.742188 55.871094 39.742188 C 55.972656 39.742188 57.792969 37.96875 57.792969 37.867188 C 57.792969 37.734375 58.714844 36.769531 58.839844 36.769531 C 58.976562 36.769531 60.769531 34.976562 60.769531 34.839844 C 60.769531 34.714844 61.734375 33.792969 61.867188 33.792969 C 61.96875 33.792969 63.742188 31.972656 63.742188 31.871094 C 63.742188 31.742188 64.765625 30.71875 64.894531 30.71875 C 65.027344 30.71875 66.71875 29.027344 66.71875 28.894531 C 66.71875 28.765625 67.742188 27.742188 67.871094 27.742188 C 67.972656 27.742188 69.792969 25.96875 69.792969 25.867188 C 69.792969 25.785156 69.972656 25.585938 70.824219 24.714844 C 71.257812 24.269531 71.617188 23.839844 71.617188 23.761719 C 71.617188 23.679688 71.660156 23.617188 71.710938 23.617188 C 71.765625 23.617188 71.808594 23.53125 71.808594 23.425781 C 71.808594 23.320312 71.851562 23.230469 71.902344 23.230469 C 71.957031 23.230469 72 23.101562 72 22.945312 C 72 22.785156 72.042969 22.65625 72.097656 22.65625 C 72.148438 22.65625 72.191406 22.578125 72.191406 22.484375 C 72.191406 22.390625 72.285156 22.25 72.398438 22.171875 C 72.511719 22.09375 72.792969 21.847656 73.019531 21.625 C 73.25 21.398438 73.5 21.214844 73.582031 21.214844 C 73.660156 21.214844 73.726562 21.171875 73.726562 21.121094 C 73.726562 21.066406 73.773438 21.023438 73.824219 21.023438 C 73.980469 21.023438 74.976562 19.988281 74.976562 19.824219 C 74.976562 19.746094 75.019531 19.679688 75.070312 19.679688 C 75.125 19.679688 75.167969 19.613281 75.167969 19.535156 C 75.167969 19.34375 76.367188 18.144531 76.558594 18.144531 C 76.636719 18.144531 76.703125 18.101562 76.703125 18.046875 C 76.703125 17.996094 76.789062 17.953125 76.894531 17.953125 C 77.136719 17.953125 77.953125 17.140625 77.953125 16.902344 C 77.953125 16.800781 78.003906 16.703125 78.070312 16.679688 C 78.207031 16.632812 77.941406 16.320312 77.765625 16.320312 C 77.710938 16.320312 77.664062 16.277344 77.664062 16.222656 C 77.664062 16.171875 77.578125 16.128906 77.472656 16.128906 C 77.367188 16.128906 77.28125 16.085938 77.28125 16.03125 C 77.28125 15.980469 77.195312 15.9375 77.089844 15.9375 C 76.980469 15.9375 76.894531 15.894531 76.894531 15.839844 C 76.894531 15.789062 76.765625 15.742188 76.609375 15.742188 C 76.449219 15.742188 76.320312 15.699219 76.320312 15.648438 C 76.320312 15.585938 75.28125 15.550781 73.390625 15.550781 C 71.503906 15.550781 70.464844 15.519531 70.464844 15.457031 C 70.464844 15.398438 70 15.359375 69.265625 15.359375 C 68.527344 15.359375 68.0625 15.324219 68.0625 15.265625 C 68.0625 15.210938 67.847656 15.167969 67.585938 15.167969 C 67.320312 15.167969 67.105469 15.210938 67.105469 15.265625 C 67.105469 15.324219 66.644531 15.359375 65.910156 15.359375 C 65.050781 15.359375 64.703125 15.394531 64.664062 15.480469 C 64.621094 15.574219 64.597656 15.574219 64.550781 15.480469 C 64.511719 15.394531 64.152344 15.359375 63.257812 15.359375 C 62.492188 15.359375 62.015625 15.324219 62.015625 15.265625 C 62.015625 15.203125 61.296875 15.167969 60.046875 15.167969 C 58.800781 15.167969 58.078125 15.203125 58.078125 15.265625 "/>
        <path style="stroke:none;fill-rule:evenodd;fill:none;fill-opacity:1" d="M 90.144531 15.070312 C 90.144531 15.136719 87.550781 15.167969 82.558594 15.167969 C 77.566406 15.167969 74.976562 15.199219 74.976562 15.265625 C 74.976562 15.316406 74.890625 15.359375 74.785156 15.359375 C 74.679688 15.359375 74.59375 15.402344 74.59375 15.457031 C 74.59375 15.511719 74.945312 15.550781 75.457031 15.550781 C 75.96875 15.550781 76.320312 15.589844 76.320312 15.648438 C 76.320312 15.699219 76.449219 15.742188 76.609375 15.742188 C 76.765625 15.742188 76.894531 15.789062 76.894531 15.839844 C 76.894531 15.894531 76.980469 15.9375 77.089844 15.9375 C 77.195312 15.9375 77.28125 15.980469 77.28125 16.03125 C 77.28125 16.085938 77.367188 16.128906 77.472656 16.128906 C 77.578125 16.128906 77.664062 16.171875 77.664062 16.222656 C 77.664062 16.277344 77.710938 16.320312 77.765625 16.320312 C 77.941406 16.320312 78.207031 16.632812 78.070312 16.679688 C 78.003906 16.703125 77.953125 16.800781 77.953125 16.902344 C 77.953125 17.140625 77.136719 17.953125 76.894531 17.953125 C 76.789062 17.953125 76.703125 17.996094 76.703125 18.046875 C 76.703125 18.101562 76.636719 18.144531 76.558594 18.144531 C 76.367188 18.144531 75.167969 19.34375 75.167969 19.535156 C 75.167969 19.613281 75.125 19.679688 75.070312 19.679688 C 75.019531 19.679688 74.976562 19.746094 74.976562 19.824219 C 74.976562 19.988281 73.980469 21.023438 73.824219 21.023438 C 73.773438 21.023438 73.726562 21.066406 73.726562 21.121094 C 73.726562 21.171875 73.660156 21.214844 73.582031 21.214844 C 73.5 21.214844 73.25 21.398438 73.019531 21.625 C 72.792969 21.847656 72.511719 22.09375 72.398438 22.171875 C 72.285156 22.25 72.191406 22.390625 72.191406 22.484375 C 72.191406 22.578125 72.148438 22.65625 72.097656 22.65625 C 72.042969 22.65625 72 22.785156 72 22.945312 C 72 23.101562 71.957031 23.230469 71.902344 23.230469 C 71.851562 23.230469 71.808594 23.320312 71.808594 23.425781 C 71.808594 23.53125 71.765625 23.617188 71.710938 23.617188 C 71.660156 23.617188 71.617188 23.679688 71.617188 23.761719 C 71.617188 23.839844 71.257812 24.269531 70.824219 24.714844 C 69.972656 25.585938 69.792969 25.785156 69.792969 25.867188 C 69.792969 25.96875 67.972656 27.742188 67.871094 27.742188 C 67.742188 27.742188 66.71875 28.765625 66.71875 28.894531 C 66.71875 29.027344 65.027344 30.71875 64.894531 30.71875 C 64.765625 30.71875 63.742188 31.742188 63.742188 31.871094 C 63.742188 31.972656 61.96875 33.792969 61.867188 33.792969 C 61.734375 33.792969 60.769531 34.714844 60.769531 34.839844 C 60.769531 34.976562 58.976562 36.769531 58.839844 36.769531 C 58.714844 36.769531 57.792969 37.734375 57.792969 37.867188 C 57.792969 37.96875 55.972656 39.742188 55.871094 39.742188 C 55.742188 39.742188 54.71875 40.765625 54.71875 40.894531 C 54.71875 41.027344 53.027344 42.71875 52.894531 42.71875 C 52.765625 42.71875 51.742188 43.742188 51.742188 43.871094 C 51.742188 43.972656 49.96875 45.792969 49.867188 45.792969 C 49.734375 45.792969 48.769531 46.714844 48.769531 46.839844 C 48.769531 46.976562 46.976562 48.769531 46.839844 48.769531 C 46.714844 48.769531 45.792969 49.734375 45.792969 49.867188 C 45.792969 49.96875 43.972656 51.742188 43.871094 51.742188 C 43.742188 51.742188 42.71875 52.765625 42.71875 52.894531 C 42.71875 53.027344 41.027344 54.71875 40.894531 54.71875 C 40.765625 54.71875 39.742188 55.742188 39.742188 55.871094 C 39.742188 55.972656 37.96875 57.792969 37.867188 57.792969 C 37.734375 57.792969 36.769531 58.714844 36.769531 58.839844 C 36.769531 58.976562 34.976562 60.769531 34.839844 60.769531 C 34.714844 60.769531 33.792969 61.734375 33.792969 61.867188 C 33.792969 61.96875 31.972656 63.742188 31.871094 63.742188 C 31.742188 63.742188 30.71875 64.765625 30.71875 64.894531 C 30.71875 65.027344 29.027344 66.71875 28.894531 66.71875 C 28.765625 66.71875 27.742188 67.742188 27.742188 67.871094 C 27.742188 67.972656 25.96875 69.792969 25.867188 69.792969 C 25.785156 69.792969 25.585938 69.972656 24.714844 70.824219 C 24.269531 71.257812 23.839844 71.617188 23.761719 71.617188 C 23.679688 71.617188 23.617188 71.660156 23.617188 71.710938 C 23.617188 71.765625 23.53125 71.808594 23.425781 71.808594 C 23.320312 71.808594 23.230469 71.851562 23.230469 71.902344 C 23.230469 71.957031 23.101562 72 22.945312 72 C 22.785156 72 22.65625 72.042969 22.65625 72.097656 C 22.65625 72.148438 22.578125 72.191406 22.484375 72.191406 C 22.390625 72.191406 22.25 72.285156 22.171875 72.398438 C 22.09375 72.511719 21.847656 72.792969 21.625 73.019531 C 21.398438 73.25 21.214844 73.5 21.214844 73.582031 C 21.214844 73.660156 21.171875 73.726562 21.121094 73.726562 C 21.066406 73.726562 21.023438 73.773438 21.023438 73.824219 C 21.023438 73.980469 19.988281 74.976562 19.824219 74.976562 C 19.746094 74.976562 19.679688 75.019531 19.679688 75.070312 C 19.679688 75.125 19.613281 75.167969 19.535156 75.167969 C 19.34375 75.167969 18.144531 76.367188 18.144531 76.558594 C 18.144531 76.636719 18.101562 76.703125 18.046875 76.703125 C 17.996094 76.703125 17.953125 76.789062 17.953125 76.894531 C 17.953125 77.140625 17.140625 77.953125 16.894531 77.953125 C 16.789062 77.953125 16.703125 77.996094 16.703125 78.046875 C 16.703125 78.101562 16.636719 78.144531 16.558594 78.144531 C 16.394531 78.144531 15.167969 79.332031 15.167969 79.492188 C 15.167969 79.648438 14.917969 79.871094 14.742188 79.871094 C 14.660156 79.871094 14.59375 79.914062 14.59375 79.96875 C 14.59375 80.019531 14.503906 80.0625 14.398438 80.0625 C 14.292969 80.0625 14.207031 80.105469 14.207031 80.160156 C 14.207031 80.210938 14.144531 80.257812 14.0625 80.257812 C 13.984375 80.257812 13.921875 80.300781 13.921875 80.351562 C 13.921875 80.40625 13.789062 80.449219 13.632812 80.449219 C 13.472656 80.449219 13.34375 80.492188 13.34375 80.542969 C 13.34375 80.601562 12.992188 80.640625 12.480469 80.640625 C 11.96875 80.640625 11.617188 80.679688 11.617188 80.734375 C 11.617188 80.789062 11.703125 80.832031 11.808594 80.832031 C 11.914062 80.832031 12 80.875 12 80.929688 C 12 80.992188 14.59375 81.023438 19.585938 81.023438 C 24.574219 81.023438 27.167969 81.058594 27.167969 81.121094 C 27.167969 81.171875 27.339844 81.214844 27.550781 81.214844 C 27.761719 81.214844 27.9375 81.171875 27.9375 81.121094 C 27.9375 81.058594 28.753906 81.023438 30.191406 81.023438 C 31.632812 81.023438 32.449219 80.988281 32.449219 80.929688 C 32.449219 80.875 32.664062 80.832031 32.929688 80.832031 C 33.191406 80.832031 33.40625 80.789062 33.40625 80.734375 C 33.40625 80.683594 33.601562 80.640625 33.839844 80.640625 C 34.078125 80.640625 34.273438 80.597656 34.273438 80.542969 C 34.273438 80.484375 34.992188 80.449219 36.238281 80.449219 C 37.488281 80.449219 38.207031 80.414062 38.207031 80.351562 C 38.207031 80.300781 38.425781 80.257812 38.6875 80.257812 C 38.953125 80.257812 39.167969 80.210938 39.167969 80.160156 C 39.167969 80.105469 39.382812 80.0625 39.648438 80.0625 C 39.910156 80.0625 40.128906 80.019531 40.128906 79.96875 C 40.128906 79.90625 40.785156 79.871094 41.902344 79.871094 C 43.023438 79.871094 43.679688 79.835938 43.679688 79.777344 C 43.679688 79.722656 43.851562 79.679688 44.0625 79.679688 L 44.449219 79.679688 L 44.449219 79.296875 C 44.449219 79.085938 44.492188 78.910156 44.542969 78.910156 C 44.597656 78.910156 44.640625 78.84375 44.640625 78.761719 C 44.640625 78.675781 44.8125 78.449219 45.019531 78.257812 C 45.605469 77.714844 45.675781 77.664062 45.835938 77.664062 C 45.917969 77.664062 45.984375 77.621094 45.984375 77.566406 C 45.984375 77.515625 46.113281 77.472656 46.273438 77.472656 C 46.714844 77.472656 47.425781 76.734375 47.425781 76.273438 C 47.425781 76.089844 47.46875 75.9375 47.519531 75.9375 C 47.574219 75.9375 47.617188 75.871094 47.617188 75.789062 C 47.617188 75.601562 48.625 74.59375 48.8125 74.59375 C 48.894531 74.59375 48.960938 74.546875 48.960938 74.496094 C 48.960938 74.441406 49.109375 74.398438 49.296875 74.398438 C 49.558594 74.398438 49.714844 74.316406 50.015625 74.015625 C 50.316406 73.714844 50.398438 73.558594 50.398438 73.296875 C 50.398438 73.109375 50.441406 72.960938 50.496094 72.960938 C 50.546875 72.960938 50.59375 72.894531 50.59375 72.8125 C 50.59375 72.625 51.601562 71.617188 51.789062 71.617188 C 51.871094 71.617188 51.9375 71.574219 51.9375 71.519531 C 51.9375 71.46875 52.089844 71.425781 52.273438 71.425781 C 52.734375 71.425781 53.472656 70.714844 53.472656 70.273438 C 53.472656 70.113281 53.515625 69.984375 53.566406 69.984375 C 53.621094 69.984375 53.664062 69.917969 53.664062 69.835938 C 53.664062 69.675781 53.714844 69.605469 54.257812 69.019531 C 54.449219 68.8125 54.675781 68.640625 54.761719 68.640625 C 54.84375 68.640625 54.910156 68.597656 54.910156 68.542969 C 54.910156 68.492188 55.0625 68.449219 55.25 68.449219 C 55.523438 68.449219 55.671875 68.363281 56.019531 68.019531 C 56.363281 67.671875 56.449219 67.523438 56.449219 67.25 C 56.449219 67.0625 56.492188 66.910156 56.542969 66.910156 C 56.597656 66.910156 56.640625 66.84375 56.640625 66.761719 C 56.640625 66.675781 56.8125 66.449219 57.019531 66.257812 C 57.605469 65.714844 57.675781 65.664062 57.835938 65.664062 C 57.917969 65.664062 57.984375 65.621094 57.984375 65.566406 C 57.984375 65.515625 58.113281 65.472656 58.273438 65.472656 C 58.714844 65.472656 59.425781 64.734375 59.425781 64.273438 C 59.425781 64.089844 59.46875 63.9375 59.519531 63.9375 C 59.574219 63.9375 59.617188 63.871094 59.617188 63.789062 C 59.617188 63.601562 60.625 62.59375 60.8125 62.59375 C 60.894531 62.59375 60.960938 62.546875 60.960938 62.496094 C 60.960938 62.441406 61.109375 62.398438 61.296875 62.398438 C 61.558594 62.398438 61.714844 62.316406 62.015625 62.015625 C 62.316406 61.714844 62.398438 61.558594 62.398438 61.296875 C 62.398438 61.109375 62.441406 60.960938 62.496094 60.960938 C 62.546875 60.960938 62.59375 60.894531 62.59375 60.8125 C 62.59375 60.625 63.601562 59.617188 63.789062 59.617188 C 63.871094 59.617188 63.9375 59.574219 63.9375 59.519531 C 63.9375 59.46875 64.089844 59.425781 64.273438 59.425781 C 64.734375 59.425781 65.472656 58.714844 65.472656 58.273438 C 65.472656 58.113281 65.515625 57.984375 65.566406 57.984375 C 65.621094 57.984375 65.664062 57.917969 65.664062 57.835938 C 65.664062 57.675781 65.714844 57.605469 66.257812 57.019531 C 66.449219 56.8125 66.675781 56.640625 66.761719 56.640625 C 66.84375 56.640625 66.910156 56.597656 66.910156 56.542969 C 66.910156 56.492188 67.0625 56.449219 67.25 56.449219 C 67.738281 56.449219 68.449219 55.738281 68.449219 55.25 C 68.449219 55.0625 68.492188 54.910156 68.542969 54.910156 C 68.597656 54.910156 68.640625 54.84375 68.640625 54.761719 C 68.640625 54.675781 68.8125 54.449219 69.019531 54.257812 C 69.605469 53.714844 69.675781 53.664062 69.835938 53.664062 C 69.917969 53.664062 69.984375 53.621094 69.984375 53.566406 C 69.984375 53.515625 70.113281 53.472656 70.273438 53.472656 C 70.714844 53.472656 71.425781 52.734375 71.425781 52.273438 C 71.425781 52.089844 71.46875 51.9375 71.519531 51.9375 C 71.574219 51.9375 71.617188 51.871094 71.617188 51.789062 C 71.617188 51.601562 72.625 50.59375 72.8125 50.59375 C 72.894531 50.59375 72.960938 50.546875 72.960938 50.496094 C 72.960938 50.441406 73.109375 50.398438 73.296875 50.398438 C 73.558594 50.398438 73.714844 50.316406 74.015625 50.015625 C 74.316406 49.714844 74.398438 49.558594 74.398438 49.296875 C 74.398438 49.109375 74.441406 48.960938 74.496094 48.960938 C 74.546875 48.960938 74.59375 48.894531 74.59375 48.8125 C 74.59375 48.625 75.601562 47.617188 75.789062 47.617188 C 75.871094 47.617188 75.9375 47.574219 75.9375 47.519531 C 75.9375 47.46875 76.089844 47.425781 76.273438 47.425781 C 76.734375 47.425781 77.472656 46.714844 77.472656 46.273438 C 77.472656 46.113281 77.515625 45.984375 77.566406 45.984375 C 77.621094 45.984375 77.664062 45.917969 77.664062 45.835938 C 77.664062 45.675781 77.714844 45.605469 78.257812 45.019531 C 78.449219 44.8125 78.675781 44.640625 78.761719 44.640625 C 78.84375 44.640625 78.910156 44.597656 78.910156 44.542969 C 78.910156 44.492188 79.0625 44.449219 79.25 44.449219 C 79.738281 44.449219 80.449219 43.738281 80.449219 43.25 C 80.449219 43.0625 80.492188 42.910156 80.542969 42.910156 C 80.597656 42.910156 80.640625 42.84375 80.640625 42.761719 C 80.640625 42.675781 80.8125 42.449219 81.019531 42.257812 C 81.605469 41.714844 81.675781 41.664062 81.835938 41.664062 C 81.917969 41.664062 81.984375 41.621094 81.984375 41.566406 C 81.984375 41.515625 82.113281 41.472656 82.273438 41.472656 C 82.714844 41.472656 83.425781 40.734375 83.425781 40.273438 C 83.425781 40.089844 83.46875 39.9375 83.519531 39.9375 C 83.574219 39.9375 83.617188 39.871094 83.617188 39.789062 C 83.617188 39.601562 84.625 38.59375 84.8125 38.59375 C 84.894531 38.59375 84.960938 38.546875 84.960938 38.496094 C 84.960938 38.441406 85.109375 38.398438 85.296875 38.398438 C 85.777344 38.398438 86.398438 37.777344 86.398438 37.296875 C 86.398438 37.109375 86.441406 36.960938 86.496094 36.960938 C 86.546875 36.960938 86.59375 36.894531 86.59375 36.8125 C 86.59375 36.625 87.601562 35.617188 87.789062 35.617188 C 87.871094 35.617188 87.9375 35.574219 87.9375 35.519531 C 87.9375 35.46875 88.089844 35.425781 88.273438 35.425781 C 88.734375 35.425781 89.472656 34.714844 89.472656 34.273438 C 89.472656 34.113281 89.515625 33.984375 89.566406 33.984375 C 89.621094 33.984375 89.664062 33.917969 89.664062 33.835938 C 89.664062 33.675781 89.714844 33.605469 90.257812 33.019531 C 90.449219 32.8125 90.675781 32.640625 90.761719 32.640625 C 90.84375 32.640625 90.910156 32.597656 90.910156 32.542969 C 90.910156 32.492188 91.085938 32.449219 91.296875 32.449219 L 91.679688 32.449219 L 91.679688 32.0625 C 91.679688 31.851562 91.722656 31.679688 91.777344 31.679688 C 91.835938 31.679688 91.871094 31.023438 91.871094 29.902344 C 91.871094 28.785156 91.90625 28.128906 91.96875 28.128906 C 92.019531 28.128906 92.0625 27.910156 92.0625 27.648438 C 92.0625 27.382812 92.105469 27.167969 92.160156 27.167969 C 92.210938 27.167969 92.257812 26.953125 92.257812 26.6875 C 92.257812 26.425781 92.300781 26.207031 92.351562 26.207031 C 92.414062 26.207031 92.449219 25.488281 92.449219 24.238281 C 92.449219 22.992188 92.484375 22.273438 92.542969 22.273438 C 92.597656 22.273438 92.640625 22.078125 92.640625 21.839844 C 92.640625 21.601562 92.683594 21.40625 92.734375 21.40625 C 92.789062 21.40625 92.832031 21.191406 92.832031 20.929688 C 92.832031 20.664062 92.875 20.449219 92.929688 20.449219 C 92.988281 20.449219 93.023438 19.710938 93.023438 18.429688 L 93.023438 16.414062 L 92.402344 15.789062 C 91.820312 15.207031 91.75 15.167969 91.34375 15.167969 C 91.105469 15.167969 90.910156 15.125 90.910156 15.070312 C 90.910156 15.019531 90.738281 14.976562 90.527344 14.976562 C 90.316406 14.976562 90.144531 15.019531 90.144531 15.070312 "/>
        <path style="stroke:none;fill-rule:evenodd;fill:none;fill-opacity:1" d="M 91.488281 14.878906 C 91.488281 14.933594 91.359375 14.976562 91.199219 14.976562 C 91.042969 14.976562 90.910156 15.019531 90.910156 15.070312 C 90.910156 15.125 91.105469 15.167969 91.34375 15.167969 C 91.75 15.167969 91.820312 15.207031 92.402344 15.789062 L 93.023438 16.414062 L 93.023438 18.429688 C 93.023438 19.710938 92.988281 20.449219 92.929688 20.449219 C 92.875 20.449219 92.832031 20.664062 92.832031 20.929688 C 92.832031 21.191406 92.789062 21.40625 92.734375 21.40625 C 92.683594 21.40625 92.640625 21.601562 92.640625 21.839844 C 92.640625 22.078125 92.597656 22.273438 92.542969 22.273438 C 92.484375 22.273438 92.449219 22.992188 92.449219 24.238281 C 92.449219 25.488281 92.414062 26.207031 92.351562 26.207031 C 92.300781 26.207031 92.257812 26.425781 92.257812 26.6875 C 92.257812 26.953125 92.210938 27.167969 92.160156 27.167969 C 92.105469 27.167969 92.0625 27.382812 92.0625 27.648438 C 92.0625 27.910156 92.019531 28.128906 91.96875 28.128906 C 91.90625 28.128906 91.871094 28.785156 91.871094 29.902344 C 91.871094 31.023438 91.835938 31.679688 91.777344 31.679688 C 91.722656 31.679688 91.679688 31.851562 91.679688 32.0625 L 91.679688 32.449219 L 91.296875 32.449219 C 91.085938 32.449219 90.910156 32.492188 90.910156 32.542969 C 90.910156 32.597656 90.84375 32.640625 90.761719 32.640625 C 90.675781 32.640625 90.449219 32.8125 90.257812 33.019531 C 89.714844 33.605469 89.664062 33.675781 89.664062 33.835938 C 89.664062 33.917969 89.621094 33.984375 89.566406 33.984375 C 89.515625 33.984375 89.472656 34.113281 89.472656 34.273438 C 89.472656 34.714844 88.734375 35.425781 88.273438 35.425781 C 88.089844 35.425781 87.9375 35.46875 87.9375 35.519531 C 87.9375 35.574219 87.871094 35.617188 87.789062 35.617188 C 87.601562 35.617188 86.59375 36.625 86.59375 36.8125 C 86.59375 36.894531 86.546875 36.960938 86.496094 36.960938 C 86.441406 36.960938 86.398438 37.109375 86.398438 37.296875 C 86.398438 37.777344 85.777344 38.398438 85.296875 38.398438 C 85.109375 38.398438 84.960938 38.441406 84.960938 38.496094 C 84.960938 38.546875 84.894531 38.59375 84.8125 38.59375 C 84.625 38.59375 83.617188 39.601562 83.617188 39.789062 C 83.617188 39.871094 83.574219 39.9375 83.519531 39.9375 C 83.46875 39.9375 83.425781 40.089844 83.425781 40.273438 C 83.425781 40.734375 82.714844 41.472656 82.273438 41.472656 C 82.113281 41.472656 81.984375 41.515625 81.984375 41.566406 C 81.984375 41.621094 81.917969 41.664062 81.835938 41.664062 C 81.675781 41.664062 81.605469 41.714844 81.019531 42.257812 C 80.8125 42.449219 80.640625 42.675781 80.640625 42.761719 C 80.640625 42.84375 80.597656 42.910156 80.542969 42.910156 C 80.492188 42.910156 80.449219 43.0625 80.449219 43.25 C 80.449219 43.738281 79.738281 44.449219 79.25 44.449219 C 79.0625 44.449219 78.910156 44.492188 78.910156 44.542969 C 78.910156 44.597656 78.84375 44.640625 78.761719 44.640625 C 78.675781 44.640625 78.449219 44.8125 78.257812 45.019531 C 77.714844 45.605469 77.664062 45.675781 77.664062 45.835938 C 77.664062 45.917969 77.621094 45.984375 77.566406 45.984375 C 77.515625 45.984375 77.472656 46.113281 77.472656 46.273438 C 77.472656 46.714844 76.734375 47.425781 76.273438 47.425781 C 76.089844 47.425781 75.9375 47.46875 75.9375 47.519531 C 75.9375 47.574219 75.871094 47.617188 75.789062 47.617188 C 75.601562 47.617188 74.59375 48.625 74.59375 48.8125 C 74.59375 48.894531 74.546875 48.960938 74.496094 48.960938 C 74.441406 48.960938 74.398438 49.109375 74.398438 49.296875 C 74.398438 49.558594 74.316406 49.714844 74.015625 50.015625 C 73.714844 50.316406 73.558594 50.398438 73.296875 50.398438 C 73.109375 50.398438 72.960938 50.441406 72.960938 50.496094 C 72.960938 50.546875 72.894531 50.59375 72.8125 50.59375 C 72.625 50.59375 71.617188 51.601562 71.617188 51.789062 C 71.617188 51.871094 71.574219 51.9375 71.519531 51.9375 C 71.46875 51.9375 71.425781 52.089844 71.425781 52.273438 C 71.425781 52.734375 70.714844 53.472656 70.273438 53.472656 C 70.113281 53.472656 69.984375 53.515625 69.984375 53.566406 C 69.984375 53.621094 69.917969 53.664062 69.835938 53.664062 C 69.675781 53.664062 69.605469 53.714844 69.019531 54.257812 C 68.8125 54.449219 68.640625 54.675781 68.640625 54.761719 C 68.640625 54.84375 68.597656 54.910156 68.542969 54.910156 C 68.492188 54.910156 68.449219 55.0625 68.449219 55.25 C 68.449219 55.738281 67.738281 56.449219 67.25 56.449219 C 67.0625 56.449219 66.910156 56.492188 66.910156 56.542969 C 66.910156 56.597656 66.84375 56.640625 66.761719 56.640625 C 66.675781 56.640625 66.449219 56.8125 66.257812 57.019531 C 65.714844 57.605469 65.664062 57.675781 65.664062 57.835938 C 65.664062 57.917969 65.621094 57.984375 65.566406 57.984375 C 65.515625 57.984375 65.472656 58.113281 65.472656 58.273438 C 65.472656 58.714844 64.734375 59.425781 64.273438 59.425781 C 64.089844 59.425781 63.9375 59.46875 63.9375 59.519531 C 63.9375 59.574219 63.871094 59.617188 63.789062 59.617188 C 63.601562 59.617188 62.59375 60.625 62.59375 60.8125 C 62.59375 60.894531 62.546875 60.960938 62.496094 60.960938 C 62.441406 60.960938 62.398438 61.109375 62.398438 61.296875 C 62.398438 61.558594 62.316406 61.714844 62.015625 62.015625 C 61.714844 62.316406 61.558594 62.398438 61.296875 62.398438 C 61.109375 62.398438 60.960938 62.441406 60.960938 62.496094 C 60.960938 62.546875 60.894531 62.59375 60.8125 62.59375 C 60.625 62.59375 59.617188 63.601562 59.617188 63.789062 C 59.617188 63.871094 59.574219 63.9375 59.519531 63.9375 C 59.46875 63.9375 59.425781 64.089844 59.425781 64.273438 C 59.425781 64.734375 58.714844 65.472656 58.273438 65.472656 C 58.113281 65.472656 57.984375 65.515625 57.984375 65.566406 C 57.984375 65.621094 57.917969 65.664062 57.835938 65.664062 C 57.675781 65.664062 57.605469 65.714844 57.019531 66.257812 C 56.8125 66.449219 56.640625 66.675781 56.640625 66.761719 C 56.640625 66.84375 56.597656 66.910156 56.542969 66.910156 C 56.492188 66.910156 56.449219 67.0625 56.449219 67.25 C 56.449219 67.523438 56.363281 67.671875 56.019531 68.019531 C 55.671875 68.363281 55.523438 68.449219 55.25 68.449219 C 55.0625 68.449219 54.910156 68.492188 54.910156 68.542969 C 54.910156 68.597656 54.84375 68.640625 54.761719 68.640625 C 54.675781 68.640625 54.449219 68.8125 54.257812 69.019531 C 53.714844 69.605469 53.664062 69.675781 53.664062 69.835938 C 53.664062 69.917969 53.621094 69.984375 53.566406 69.984375 C 53.515625 69.984375 53.472656 70.113281 53.472656 70.273438 C 53.472656 70.714844 52.734375 71.425781 52.273438 71.425781 C 52.089844 71.425781 51.9375 71.46875 51.9375 71.519531 C 51.9375 71.574219 51.871094 71.617188 51.789062 71.617188 C 51.710938 71.617188 51.40625 71.851562 51.117188 72.140625 C 50.828125 72.429688 50.59375 72.734375 50.59375 72.8125 C 50.59375 72.894531 50.546875 72.960938 50.496094 72.960938 C 50.441406 72.960938 50.398438 73.109375 50.398438 73.296875 C 50.398438 73.558594 50.316406 73.714844 50.015625 74.015625 C 49.714844 74.316406 49.558594 74.398438 49.296875 74.398438 C 49.109375 74.398438 48.960938 74.441406 48.960938 74.496094 C 48.960938 74.546875 48.894531 74.59375 48.8125 74.59375 C 48.625 74.59375 47.617188 75.601562 47.617188 75.789062 C 47.617188 75.871094 47.574219 75.9375 47.519531 75.9375 C 47.46875 75.9375 47.425781 76.089844 47.425781 76.273438 C 47.425781 76.734375 46.714844 77.472656 46.273438 77.472656 C 46.113281 77.472656 45.984375 77.515625 45.984375 77.566406 C 45.984375 77.621094 45.917969 77.664062 45.835938 77.664062 C 45.675781 77.664062 45.605469 77.714844 45.019531 78.257812 C 44.8125 78.449219 44.640625 78.675781 44.640625 78.761719 C 44.640625 78.84375 44.597656 78.910156 44.542969 78.910156 C 44.492188 78.910156 44.449219 79.085938 44.449219 79.296875 L 44.449219 79.679688 L 44.0625 79.679688 C 43.851562 79.679688 43.679688 79.722656 43.679688 79.777344 C 43.679688 79.835938 43.023438 79.871094 41.902344 79.871094 C 40.785156 79.871094 40.128906 79.90625 40.128906 79.96875 C 40.128906 80.019531 39.910156 80.0625 39.648438 80.0625 C 39.382812 80.0625 39.167969 80.105469 39.167969 80.160156 C 39.167969 80.210938 38.953125 80.257812 38.6875 80.257812 C 38.425781 80.257812 38.207031 80.300781 38.207031 80.351562 C 38.207031 80.414062 37.488281 80.449219 36.238281 80.449219 C 34.992188 80.449219 34.273438 80.484375 34.273438 80.542969 C 34.273438 80.597656 34.078125 80.640625 33.839844 80.640625 C 33.601562 80.640625 33.40625 80.683594 33.40625 80.734375 C 33.40625 80.789062 33.191406 80.832031 32.929688 80.832031 C 32.664062 80.832031 32.449219 80.875 32.449219 80.929688 C 32.449219 80.988281 31.632812 81.023438 30.191406 81.023438 C 28.753906 81.023438 27.9375 81.058594 27.9375 81.121094 C 27.9375 81.171875 28.066406 81.214844 28.222656 81.214844 C 28.382812 81.214844 28.511719 81.257812 28.511719 81.3125 C 28.511719 81.375 31.535156 81.40625 37.390625 81.40625 C 43.246094 81.40625 46.273438 81.375 46.273438 81.3125 C 46.273438 81.25 48.128906 81.214844 51.648438 81.214844 C 55.167969 81.214844 57.023438 81.183594 57.023438 81.121094 C 57.023438 81.058594 58.113281 81.023438 60.097656 81.023438 C 62.082031 81.023438 63.167969 80.988281 63.167969 80.929688 C 63.167969 80.867188 63.695312 80.832031 64.558594 80.832031 C 65.425781 80.832031 65.953125 80.867188 65.953125 80.929688 C 65.953125 80.988281 66.558594 81.023438 67.585938 81.023438 C 68.609375 81.023438 69.214844 80.988281 69.214844 80.929688 C 69.214844 80.863281 73.023438 80.832031 80.449219 80.832031 C 87.871094 80.832031 91.679688 80.800781 91.679688 80.734375 C 91.679688 80.683594 91.746094 80.640625 91.828125 80.640625 C 92.019531 80.640625 92.640625 80.019531 92.640625 79.828125 C 92.640625 79.746094 92.683594 79.679688 92.734375 79.679688 C 92.800781 79.679688 92.832031 75.871094 92.832031 68.449219 C 92.832031 61.023438 92.863281 57.214844 92.929688 57.214844 C 92.988281 57.214844 93.023438 56.609375 93.023438 55.585938 C 93.023438 54.558594 92.988281 53.953125 92.929688 53.953125 C 92.867188 53.953125 92.832031 53.425781 92.832031 52.558594 C 92.832031 51.695312 92.867188 51.167969 92.929688 51.167969 C 92.988281 51.167969 93.023438 50.082031 93.023438 48.097656 C 93.023438 46.113281 93.058594 45.023438 93.121094 45.023438 C 93.183594 45.023438 93.214844 43.167969 93.214844 39.648438 C 93.214844 36.128906 93.25 34.273438 93.3125 34.273438 C 93.375 34.273438 93.40625 31.246094 93.40625 25.390625 C 93.40625 19.535156 93.375 16.511719 93.3125 16.511719 C 93.257812 16.511719 93.214844 16.445312 93.214844 16.367188 C 93.214844 16.175781 92.015625 14.976562 91.824219 14.976562 C 91.746094 14.976562 91.679688 14.933594 91.679688 14.878906 C 91.679688 14.828125 91.636719 14.785156 91.585938 14.785156 C 91.53125 14.785156 91.488281 14.828125 91.488281 14.878906 "/>
        <path style="stroke:none;fill-rule:evenodd;fill:none;fill-opacity:1" d="M 58.078125 14.6875 C 58.078125 14.75 56.992188 14.785156 55.007812 14.785156 C 53.023438 14.785156 51.9375 14.816406 51.9375 14.878906 C 51.9375 14.945312 48.929688 14.976562 43.105469 14.976562 C 37.28125 14.976562 34.273438 15.007812 34.273438 15.070312 C 34.273438 15.136719 29.253906 15.167969 19.414062 15.167969 C 4.664062 15.167969 4.554688 15.167969 4.414062 15.359375 C 4.339844 15.464844 4.21875 15.550781 4.152344 15.550781 C 3.984375 15.550781 3.550781 15.984375 3.550781 16.152344 C 3.550781 16.21875 3.464844 16.339844 3.359375 16.414062 C 3.167969 16.554688 3.167969 16.664062 3.167969 31.414062 C 3.167969 41.253906 3.136719 46.273438 3.070312 46.273438 C 3.007812 46.273438 2.976562 49.28125 2.976562 55.105469 C 2.976562 60.929688 2.945312 63.9375 2.878906 63.9375 C 2.816406 63.9375 2.785156 65.023438 2.785156 67.007812 C 2.785156 68.992188 2.75 70.078125 2.6875 70.078125 C 2.628906 70.078125 2.59375 70.800781 2.59375 72.046875 C 2.59375 73.296875 2.628906 74.015625 2.6875 74.015625 C 2.75 74.015625 2.785156 74.929688 2.785156 76.558594 C 2.785156 78.191406 2.75 79.105469 2.6875 79.105469 C 2.636719 79.105469 2.59375 79.234375 2.59375 79.390625 C 2.59375 79.550781 2.636719 79.679688 2.6875 79.679688 C 2.742188 79.679688 2.785156 79.765625 2.785156 79.871094 C 2.785156 79.976562 2.828125 80.0625 2.878906 80.0625 C 2.933594 80.0625 2.976562 80.128906 2.976562 80.210938 C 2.976562 80.402344 3.792969 81.214844 3.980469 81.214844 C 4.0625 81.214844 4.128906 81.257812 4.128906 81.3125 C 4.128906 81.363281 4.214844 81.40625 4.320312 81.40625 C 4.425781 81.40625 4.511719 81.453125 4.511719 81.503906 C 4.511719 81.558594 4.640625 81.601562 4.800781 81.601562 C 4.957031 81.601562 5.089844 81.558594 5.089844 81.503906 C 5.089844 81.441406 5.808594 81.40625 7.054688 81.40625 C 8.304688 81.40625 9.023438 81.371094 9.023438 81.3125 C 9.023438 81.25 9.648438 81.214844 10.703125 81.214844 C 11.761719 81.214844 12.382812 81.179688 12.382812 81.121094 C 12.382812 81.066406 12.296875 81.023438 12.191406 81.023438 C 12.085938 81.023438 12 80.980469 12 80.929688 C 12 80.875 11.914062 80.832031 11.808594 80.832031 C 11.703125 80.832031 11.617188 80.789062 11.617188 80.734375 C 11.617188 80.675781 10.863281 80.640625 9.550781 80.640625 C 8.238281 80.640625 7.488281 80.675781 7.488281 80.734375 C 7.488281 80.792969 7.023438 80.832031 6.289062 80.832031 C 5.550781 80.832031 5.089844 80.871094 5.089844 80.929688 C 5.089844 81.105469 4.558594 81.03125 4.414062 80.832031 C 4.339844 80.726562 4.21875 80.640625 4.152344 80.640625 C 3.984375 80.640625 3.550781 80.207031 3.550781 80.042969 C 3.550781 79.972656 3.464844 79.851562 3.359375 79.777344 C 3.164062 79.632812 3.085938 79.105469 3.265625 79.105469 C 3.324219 79.105469 3.359375 78.644531 3.359375 77.910156 C 3.359375 77.050781 3.394531 76.703125 3.480469 76.664062 C 3.574219 76.621094 3.574219 76.597656 3.480469 76.550781 C 3.394531 76.511719 3.359375 76.152344 3.359375 75.257812 C 3.359375 74.492188 3.324219 74.015625 3.265625 74.015625 C 3.203125 74.015625 3.167969 73.296875 3.167969 72.046875 C 3.167969 70.800781 3.203125 70.078125 3.265625 70.078125 C 3.324219 70.078125 3.359375 69.617188 3.359375 68.878906 C 3.359375 68.144531 3.398438 67.679688 3.457031 67.679688 C 3.515625 67.679688 3.550781 67.28125 3.550781 66.671875 C 3.550781 66.0625 3.589844 65.664062 3.648438 65.664062 C 3.703125 65.664062 3.742188 65.34375 3.742188 64.894531 C 3.742188 64.449219 3.785156 64.128906 3.839844 64.128906 C 3.894531 64.128906 3.9375 63.839844 3.9375 63.457031 C 3.9375 63.070312 3.976562 62.785156 4.03125 62.785156 C 4.085938 62.785156 4.128906 62.546875 4.128906 62.257812 C 4.128906 61.964844 4.171875 61.726562 4.222656 61.726562 C 4.277344 61.726562 4.320312 61.511719 4.320312 61.246094 C 4.320312 60.984375 4.363281 60.769531 4.414062 60.769531 C 4.46875 60.769531 4.511719 60.570312 4.511719 60.332031 C 4.511719 59.917969 4.546875 59.859375 5.167969 59.246094 C 5.53125 58.890625 5.855469 58.480469 5.890625 58.335938 C 5.96875 58.027344 6.933594 57.023438 7.148438 57.023438 C 7.230469 57.023438 7.296875 56.980469 7.296875 56.929688 C 7.296875 56.875 7.363281 56.832031 7.441406 56.832031 C 7.632812 56.832031 8.832031 55.632812 8.832031 55.441406 C 8.832031 55.363281 8.875 55.296875 8.929688 55.296875 C 8.980469 55.296875 9.023438 55.230469 9.023438 55.148438 C 9.023438 54.933594 10.027344 53.96875 10.332031 53.894531 C 10.632812 53.816406 11.808594 52.683594 11.808594 52.464844 C 11.808594 52.386719 11.851562 52.320312 11.902344 52.320312 C 11.957031 52.320312 12 52.253906 12 52.175781 C 12 51.984375 13.007812 50.976562 13.199219 50.976562 C 13.277344 50.976562 13.34375 50.933594 13.34375 50.878906 C 13.34375 50.828125 13.421875 50.785156 13.515625 50.785156 C 13.609375 50.785156 13.75 50.691406 13.828125 50.578125 C 14.007812 50.316406 14.316406 50.007812 14.578125 49.828125 C 14.691406 49.75 14.785156 49.609375 14.785156 49.515625 C 14.785156 49.421875 14.828125 49.34375 14.878906 49.34375 C 14.933594 49.34375 14.976562 49.277344 14.976562 49.199219 C 14.976562 49.007812 15.984375 48 16.175781 48 C 16.253906 48 16.320312 47.957031 16.320312 47.902344 C 16.320312 47.851562 16.386719 47.808594 16.464844 47.808594 C 16.683594 47.808594 17.816406 46.632812 17.894531 46.332031 C 17.96875 46.027344 18.933594 45.023438 19.148438 45.023438 C 19.230469 45.023438 19.296875 44.980469 19.296875 44.929688 C 19.296875 44.875 19.363281 44.832031 19.441406 44.832031 C 19.632812 44.832031 20.832031 43.632812 20.832031 43.441406 C 20.832031 43.363281 20.875 43.296875 20.929688 43.296875 C 20.980469 43.296875 21.023438 43.230469 21.023438 43.148438 C 21.023438 42.933594 22.027344 41.96875 22.332031 41.894531 C 22.632812 41.816406 23.808594 40.683594 23.808594 40.464844 C 23.808594 40.386719 23.851562 40.320312 23.902344 40.320312 C 23.957031 40.320312 24 40.253906 24 40.175781 C 24 39.984375 25.007812 38.976562 25.199219 38.976562 C 25.277344 38.976562 25.34375 38.933594 25.34375 38.878906 C 25.34375 38.828125 25.421875 38.785156 25.515625 38.785156 C 25.609375 38.785156 25.75 38.691406 25.828125 38.578125 C 26.007812 38.316406 26.316406 38.007812 26.578125 37.828125 C 26.691406 37.75 26.785156 37.609375 26.785156 37.515625 C 26.785156 37.421875 26.828125 37.34375 26.878906 37.34375 C 26.933594 37.34375 26.976562 37.277344 26.976562 37.199219 C 26.976562 37.007812 27.984375 36 28.175781 36 C 28.253906 36 28.320312 35.957031 28.320312 35.902344 C 28.320312 35.851562 28.386719 35.808594 28.464844 35.808594 C 28.683594 35.808594 29.816406 34.632812 29.894531 34.332031 C 29.96875 34.027344 30.933594 33.023438 31.148438 33.023438 C 31.230469 33.023438 31.296875 32.980469 31.296875 32.929688 C 31.296875 32.875 31.363281 32.832031 31.441406 32.832031 C 31.632812 32.832031 32.832031 31.632812 32.832031 31.441406 C 32.832031 31.363281 32.875 31.296875 32.929688 31.296875 C 32.980469 31.296875 33.023438 31.230469 33.023438 31.148438 C 33.023438 30.933594 34.027344 29.96875 34.332031 29.894531 C 34.632812 29.816406 35.808594 28.683594 35.808594 28.464844 C 35.808594 28.386719 35.851562 28.320312 35.902344 28.320312 C 35.957031 28.320312 36 28.253906 36 28.175781 C 36 27.984375 37.007812 26.976562 37.199219 26.976562 C 37.277344 26.976562 37.34375 26.933594 37.34375 26.878906 C 37.34375 26.828125 37.421875 26.785156 37.515625 26.785156 C 37.609375 26.785156 37.75 26.691406 37.828125 26.578125 C 38.007812 26.316406 38.316406 26.007812 38.578125 25.828125 C 38.691406 25.75 38.785156 25.609375 38.785156 25.515625 C 38.785156 25.421875 38.828125 25.34375 38.878906 25.34375 C 38.933594 25.34375 38.976562 25.277344 38.976562 25.199219 C 38.976562 25.007812 39.984375 24 40.175781 24 C 40.253906 24 40.320312 23.957031 40.320312 23.902344 C 40.320312 23.851562 40.386719 23.808594 40.464844 23.808594 C 40.683594 23.808594 41.816406 22.632812 41.894531 22.332031 C 41.96875 22.027344 42.933594 21.023438 43.148438 21.023438 C 43.230469 21.023438 43.296875 20.980469 43.296875 20.929688 C 43.296875 20.875 43.363281 20.832031 43.441406 20.832031 C 43.632812 20.832031 44.832031 19.632812 44.832031 19.441406 C 44.832031 19.363281 44.875 19.296875 44.929688 19.296875 C 44.980469 19.296875 45.023438 19.230469 45.023438 19.148438 C 45.023438 18.933594 46.027344 17.96875 46.335938 17.890625 C 46.480469 17.855469 46.890625 17.53125 47.246094 17.167969 C 47.859375 16.546875 47.917969 16.511719 48.332031 16.511719 C 48.570312 16.511719 48.769531 16.46875 48.769531 16.414062 C 48.769531 16.363281 48.984375 16.320312 49.246094 16.320312 C 49.511719 16.320312 49.726562 16.277344 49.726562 16.222656 C 49.726562 16.171875 49.964844 16.128906 50.257812 16.128906 C 50.546875 16.128906 50.785156 16.085938 50.785156 16.03125 C 50.785156 15.976562 51.070312 15.9375 51.457031 15.9375 C 51.839844 15.9375 52.128906 15.894531 52.128906 15.839844 C 52.128906 15.785156 52.449219 15.742188 52.894531 15.742188 C 53.34375 15.742188 53.664062 15.703125 53.664062 15.648438 C 53.664062 15.589844 54.0625 15.550781 54.671875 15.550781 C 55.28125 15.550781 55.679688 15.515625 55.679688 15.457031 C 55.679688 15.398438 56.144531 15.359375 56.878906 15.359375 C 57.617188 15.359375 58.078125 15.324219 58.078125 15.265625 C 58.078125 15.203125 58.800781 15.167969 60.046875 15.167969 C 61.296875 15.167969 62.015625 15.203125 62.015625 15.265625 C 62.015625 15.324219 62.492188 15.359375 63.257812 15.359375 C 64.152344 15.359375 64.511719 15.394531 64.550781 15.480469 C 64.597656 15.574219 64.621094 15.574219 64.664062 15.480469 C 64.703125 15.394531 65.050781 15.359375 65.910156 15.359375 C 66.644531 15.359375 67.105469 15.324219 67.105469 15.265625 C 67.105469 15.210938 67.320312 15.167969 67.585938 15.167969 C 67.847656 15.167969 68.0625 15.210938 68.0625 15.265625 C 68.0625 15.324219 68.527344 15.359375 69.265625 15.359375 C 70 15.359375 70.464844 15.398438 70.464844 15.457031 C 70.464844 15.515625 71.214844 15.550781 72.527344 15.550781 C 73.839844 15.550781 74.59375 15.515625 74.59375 15.457031 C 74.59375 15.402344 74.679688 15.359375 74.785156 15.359375 C 74.890625 15.359375 74.976562 15.316406 74.976562 15.265625 C 74.976562 15.210938 75.0625 15.167969 75.167969 15.167969 C 75.273438 15.167969 75.359375 15.125 75.359375 15.070312 C 75.359375 15.011719 74.734375 14.976562 73.679688 14.976562 C 72.625 14.976562 72 14.941406 72 14.878906 C 72 14.820312 71.28125 14.785156 70.03125 14.785156 C 68.785156 14.785156 68.0625 14.75 68.0625 14.6875 C 68.0625 14.636719 67.847656 14.59375 67.585938 14.59375 C 67.320312 14.59375 67.105469 14.636719 67.105469 14.6875 C 67.105469 14.75 66.191406 14.785156 64.558594 14.785156 C 62.929688 14.785156 62.015625 14.75 62.015625 14.6875 C 62.015625 14.628906 61.296875 14.59375 60.046875 14.59375 C 58.800781 14.59375 58.078125 14.628906 58.078125 14.6875 "/>
        <path style="stroke:none;fill-rule:evenodd;fill:#040404;fill-opacity:1" d="M 0 48 L 0 96 L 96 96 L 96 0 L 0 0 L 0 48 M 7.488281 8.976562 L 7.488281 10.464844 L 4.511719 10.464844 L 4.511719 7.488281 L 7.488281 7.488281 L 7.488281 8.976562 M 19.488281 8.976562 L 19.488281 10.464844 L 16.511719 10.464844 L 16.511719 7.488281 L 19.488281 7.488281 L 19.488281 8.976562 M 31.488281 8.976562 L 31.488281 10.464844 L 28.511719 10.464844 L 28.511719 7.488281 L 31.488281 7.488281 L 31.488281 8.976562 M 43.488281 8.976562 L 43.488281 10.464844 L 40.511719 10.464844 L 40.511719 7.488281 L 43.488281 7.488281 L 43.488281 8.976562 M 55.488281 8.976562 L 55.488281 10.464844 L 52.511719 10.464844 L 52.511719 7.488281 L 55.488281 7.488281 L 55.488281 8.976562 M 67.488281 8.976562 L 67.488281 10.464844 L 64.511719 10.464844 L 64.511719 7.488281 L 67.488281 7.488281 L 67.488281 8.976562 M 79.488281 8.976562 L 79.488281 10.464844 L 76.511719 10.464844 L 76.511719 7.488281 L 79.488281 7.488281 L 79.488281 8.976562 M 91.488281 8.976562 L 91.488281 10.464844 L 88.511719 10.464844 L 88.511719 7.488281 L 91.488281 7.488281 L 91.488281 8.976562 M 62.015625 14.6875 C 62.015625 14.75 62.929688 14.785156 64.558594 14.785156 C 66.191406 14.785156 67.105469 14.75 67.105469 14.6875 C 67.105469 14.636719 67.320312 14.59375 67.585938 14.59375 C 67.847656 14.59375 68.0625 14.636719 68.0625 14.6875 C 68.0625 14.75 68.785156 14.785156 70.03125 14.785156 C 71.28125 14.785156 72 14.820312 72 14.878906 C 72 14.941406 72.625 14.976562 73.679688 14.976562 C 74.734375 14.976562 75.359375 15.011719 75.359375 15.070312 C 75.359375 15.136719 77.886719 15.167969 82.753906 15.167969 C 87.617188 15.167969 90.144531 15.136719 90.144531 15.070312 C 90.144531 15.015625 90.429688 14.976562 90.808594 14.976562 C 91.246094 14.976562 91.492188 14.933594 91.527344 14.855469 C 91.574219 14.761719 91.59375 14.761719 91.640625 14.855469 C 91.671875 14.921875 91.757812 14.976562 91.832031 14.976562 C 92.019531 14.976562 93.214844 16.179688 93.214844 16.367188 C 93.214844 16.445312 93.257812 16.511719 93.3125 16.511719 C 93.375 16.511719 93.40625 19.535156 93.40625 25.390625 C 93.40625 31.246094 93.375 34.273438 93.3125 34.273438 C 93.25 34.273438 93.214844 36.128906 93.214844 39.648438 C 93.214844 43.167969 93.183594 45.023438 93.121094 45.023438 C 93.058594 45.023438 93.023438 46.113281 93.023438 48.097656 C 93.023438 50.082031 92.988281 51.167969 92.929688 51.167969 C 92.867188 51.167969 92.832031 51.695312 92.832031 52.558594 C 92.832031 53.425781 92.867188 53.953125 92.929688 53.953125 C 92.988281 53.953125 93.023438 54.558594 93.023438 55.585938 C 93.023438 56.609375 92.988281 57.214844 92.929688 57.214844 C 92.863281 57.214844 92.832031 61.023438 92.832031 68.449219 C 92.832031 75.871094 92.800781 79.679688 92.734375 79.679688 C 92.683594 79.679688 92.640625 79.746094 92.640625 79.828125 C 92.640625 79.910156 92.492188 80.125 92.308594 80.308594 C 92.125 80.492188 91.910156 80.640625 91.828125 80.640625 C 91.746094 80.640625 91.679688 80.683594 91.679688 80.734375 C 91.679688 80.800781 87.871094 80.832031 80.449219 80.832031 C 73.023438 80.832031 69.214844 80.863281 69.214844 80.929688 C 69.214844 80.988281 68.609375 81.023438 67.585938 81.023438 C 66.558594 81.023438 65.953125 80.988281 65.953125 80.929688 C 65.953125 80.867188 65.425781 80.832031 64.558594 80.832031 C 63.695312 80.832031 63.167969 80.867188 63.167969 80.929688 C 63.167969 80.988281 62.082031 81.023438 60.097656 81.023438 C 58.113281 81.023438 57.023438 81.058594 57.023438 81.121094 C 57.023438 81.183594 55.167969 81.214844 51.648438 81.214844 C 48.128906 81.214844 46.273438 81.25 46.273438 81.3125 C 46.273438 81.375 43.246094 81.40625 37.390625 81.40625 C 31.535156 81.40625 28.511719 81.375 28.511719 81.3125 C 28.511719 81.257812 28.222656 81.214844 27.839844 81.214844 C 27.457031 81.214844 27.167969 81.175781 27.167969 81.121094 C 27.167969 81.058594 24.640625 81.023438 19.777344 81.023438 C 14.910156 81.023438 12.382812 81.058594 12.382812 81.121094 C 12.382812 81.179688 11.761719 81.214844 10.703125 81.214844 C 9.648438 81.214844 9.023438 81.25 9.023438 81.3125 C 9.023438 81.371094 8.304688 81.40625 7.054688 81.40625 C 5.808594 81.40625 5.089844 81.441406 5.089844 81.503906 C 5.089844 81.558594 4.957031 81.601562 4.800781 81.601562 C 4.640625 81.601562 4.511719 81.558594 4.511719 81.503906 C 4.511719 81.453125 4.425781 81.40625 4.320312 81.40625 C 4.214844 81.40625 4.128906 81.363281 4.128906 81.3125 C 4.128906 81.257812 4.0625 81.214844 3.980469 81.214844 C 3.792969 81.214844 2.976562 80.402344 2.976562 80.210938 C 2.976562 80.128906 2.933594 80.0625 2.878906 80.0625 C 2.828125 80.0625 2.785156 79.976562 2.785156 79.871094 C 2.785156 79.765625 2.742188 79.679688 2.6875 79.679688 C 2.636719 79.679688 2.59375 79.550781 2.59375 79.390625 C 2.59375 79.234375 2.636719 79.105469 2.6875 79.105469 C 2.75 79.105469 2.785156 78.191406 2.785156 76.558594 C 2.785156 74.929688 2.75 74.015625 2.6875 74.015625 C 2.628906 74.015625 2.59375 73.296875 2.59375 72.046875 C 2.59375 70.800781 2.628906 70.078125 2.6875 70.078125 C 2.75 70.078125 2.785156 68.992188 2.785156 67.007812 C 2.785156 65.023438 2.816406 63.9375 2.878906 63.9375 C 2.945312 63.9375 2.976562 60.929688 2.976562 55.105469 C 2.976562 49.28125 3.007812 46.273438 3.070312 46.273438 C 3.136719 46.273438 3.167969 41.253906 3.167969 31.414062 C 3.167969 16.664062 3.167969 16.554688 3.359375 16.414062 C 3.464844 16.339844 3.550781 16.21875 3.550781 16.152344 C 3.550781 15.984375 3.984375 15.550781 4.152344 15.550781 C 4.21875 15.550781 4.339844 15.464844 4.414062 15.359375 C 4.554688 15.167969 4.664062 15.167969 19.414062 15.167969 C 29.253906 15.167969 34.273438 15.136719 34.273438 15.070312 C 34.273438 15.007812 37.28125 14.976562 43.105469 14.976562 C 48.929688 14.976562 51.9375 14.945312 51.9375 14.878906 C 51.9375 14.816406 53.023438 14.785156 55.007812 14.785156 C 56.992188 14.785156 58.078125 14.75 58.078125 14.6875 C 58.078125 14.628906 58.800781 14.59375 60.046875 14.59375 C 61.296875 14.59375 62.015625 14.628906 62.015625 14.6875 M 7.488281 87.023438 L 7.488281 88.511719 L 4.511719 88.511719 L 4.511719 85.535156 L 7.488281 85.535156 L 7.488281 87.023438 M 19.488281 87.023438 L 19.488281 88.511719 L 16.511719 88.511719 L 16.511719 85.535156 L 19.488281 85.535156 L 19.488281 87.023438 M 31.488281 87.023438 L 31.488281 88.511719 L 28.511719 88.511719 L 28.511719 85.535156 L 31.488281 85.535156 L 31.488281 87.023438 M 43.488281 87.023438 L 43.488281 88.511719 L 40.511719 88.511719 L 40.511719 85.535156 L 43.488281 85.535156 L 43.488281 87.023438 M 55.488281 87.023438 L 55.488281 88.511719 L 52.511719 88.511719 L 52.511719 85.535156 L 55.488281 85.535156 L 55.488281 87.023438 M 67.488281 87.023438 L 67.488281 88.511719 L 64.511719 88.511719 L 64.511719 85.535156 L 67.488281 85.535156 L 67.488281 87.023438 M 79.488281 87.023438 L 79.488281 88.511719 L 76.511719 88.511719 L 76.511719 85.535156 L 79.488281 85.535156 L 79.488281 87.023438 M 91.488281 87.023438 L 91.488281 88.511719 L 88.511719 88.511719 L 88.511719 85.535156 L 91.488281 85.535156 L 91.488281 87.023438 "/>
    </g>
</svg>
