<svg id="svg" version="1.1" xmlns="http://www.w3.org/2000/svg" xmlns:xlink="http://www.w3.org/1999/xlink" width="400" height="400" viewBox="0, 0, 400,400"><g id="svgg"><path id="path0" d="M242.000 63.600 C 242.000 63.845,240.067 64.000,237.000 64.000 C 233.933 64.000,232.000 64.155,232.000 64.400 C 232.000 64.641,230.333 64.800,227.800 64.800 C 225.267 64.800,223.600 64.959,223.600 65.200 C 223.600 65.433,222.267 65.600,220.400 65.600 C 218.533 65.600,217.200 65.767,217.200 66.000 C 217.200 66.229,216.000 66.400,214.400 66.400 C 212.800 66.400,211.600 66.571,211.600 66.800 C 211.600 67.020,210.610 67.200,209.400 67.200 C 208.190 67.200,207.200 67.380,207.200 67.600 C 207.200 67.820,206.300 68.000,205.200 68.000 C 204.100 68.000,203.200 68.180,203.200 68.400 C 203.200 68.620,202.381 68.800,201.381 68.800 C 199.662 68.800,199.412 68.951,196.863 71.536 C 195.379 73.041,193.668 74.397,193.061 74.549 C 191.785 74.869,187.600 78.887,187.600 79.791 C 187.600 80.126,187.420 80.400,187.200 80.400 C 186.980 80.400,186.800 80.673,186.800 81.007 C 186.800 81.799,181.799 86.800,181.007 86.800 C 180.673 86.800,180.400 86.980,180.400 87.200 C 180.400 87.420,180.126 87.600,179.791 87.600 C 178.892 87.600,174.870 91.782,174.553 93.046 C 174.236 94.307,169.509 99.200,168.607 99.200 C 168.273 99.200,168.000 99.380,168.000 99.600 C 168.000 99.820,167.726 100.000,167.391 100.000 C 166.599 100.000,162.400 104.199,162.400 104.991 C 162.400 105.326,162.220 105.600,162.000 105.600 C 161.780 105.600,161.600 105.920,161.600 106.312 C 161.600 106.703,161.215 107.288,160.745 107.612 C 159.653 108.363,158.363 109.653,157.612 110.745 C 157.288 111.215,156.703 111.600,156.312 111.600 C 155.920 111.600,155.600 111.780,155.600 112.000 C 155.600 112.220,155.326 112.400,154.991 112.400 C 154.199 112.400,150.000 116.599,150.000 117.391 C 150.000 117.726,149.820 118.000,149.600 118.000 C 149.380 118.000,149.200 118.273,149.200 118.607 C 149.200 119.509,144.307 124.236,143.046 124.553 C 141.782 124.870,137.600 128.892,137.600 129.791 C 137.600 130.126,137.420 130.400,137.200 130.400 C 136.980 130.400,136.800 130.673,136.800 131.007 C 136.800 131.799,131.799 136.800,131.007 136.800 C 130.673 136.800,130.400 136.980,130.400 137.200 C 130.400 137.420,130.126 137.600,129.791 137.600 C 128.892 137.600,124.870 141.782,124.553 143.046 C 124.236 144.307,119.509 149.200,118.607 149.200 C 118.273 149.200,118.000 149.380,118.000 149.600 C 118.000 149.820,117.726 150.000,117.391 150.000 C 116.599 150.000,112.400 154.199,112.400 154.991 C 112.400 155.326,112.220 155.600,112.000 155.600 C 111.780 155.600,111.600 155.920,111.600 156.312 C 111.600 156.703,111.215 157.288,110.745 157.612 C 109.653 158.363,108.363 159.653,107.612 160.745 C 107.288 161.215,106.703 161.600,106.312 161.600 C 105.920 161.600,105.600 161.780,105.600 162.000 C 105.600 162.220,105.326 162.400,104.991 162.400 C 104.199 162.400,100.000 166.599,100.000 167.391 C 100.000 167.726,99.820 168.000,99.600 168.000 C 99.380 168.000,99.200 168.273,99.200 168.607 C 99.200 169.509,94.307 174.236,93.046 174.553 C 91.782 174.870,87.600 178.892,87.600 179.791 C 87.600 180.126,87.420 180.400,87.200 180.400 C 86.980 180.400,86.800 180.673,86.800 181.007 C 86.800 181.799,81.799 186.800,81.007 186.800 C 80.673 186.800,80.400 186.980,80.400 187.200 C 80.400 187.420,80.126 187.600,79.791 187.600 C 78.892 187.600,74.870 191.782,74.553 193.046 C 74.236 194.307,69.509 199.200,68.607 199.200 C 68.273 199.200,68.000 199.380,68.000 199.600 C 68.000 199.820,67.726 200.000,67.391 200.000 C 66.599 200.000,62.400 204.199,62.400 204.991 C 62.400 205.326,62.220 205.600,62.000 205.600 C 61.780 205.600,61.600 205.920,61.600 206.312 C 61.600 206.703,61.215 207.288,60.745 207.612 C 59.653 208.363,58.363 209.653,57.612 210.745 C 57.288 211.215,56.703 211.600,56.312 211.600 C 55.920 211.600,55.600 211.780,55.600 212.000 C 55.600 212.220,55.326 212.400,54.991 212.400 C 54.199 212.400,50.000 216.599,50.000 217.391 C 50.000 217.726,49.820 218.000,49.600 218.000 C 49.380 218.000,49.200 218.273,49.200 218.607 C 49.200 219.509,44.307 224.236,43.046 224.553 C 41.782 224.870,37.600 228.892,37.600 229.791 C 37.600 230.126,37.420 230.400,37.200 230.400 C 36.980 230.400,36.800 230.673,36.800 231.007 C 36.800 231.799,31.799 236.800,31.007 236.800 C 30.673 236.800,30.400 236.980,30.400 237.200 C 30.400 237.420,30.126 237.600,29.791 237.600 C 28.887 237.600,24.869 241.785,24.549 243.061 C 24.397 243.668,23.041 245.379,21.536 246.863 C 18.951 249.412,18.800 249.662,18.800 251.381 C 18.800 252.381,18.620 253.200,18.400 253.200 C 18.180 253.200,18.000 254.100,18.000 255.200 C 18.000 256.300,17.820 257.200,17.600 257.200 C 17.380 257.200,17.200 258.190,17.200 259.400 C 17.200 260.610,17.020 261.600,16.800 261.600 C 16.571 261.600,16.400 262.800,16.400 264.400 C 16.400 266.000,16.229 267.200,16.000 267.200 C 15.767 267.200,15.600 268.533,15.600 270.400 C 15.600 272.267,15.433 273.600,15.200 273.600 C 14.959 273.600,14.800 275.267,14.800 277.800 C 14.800 280.333,14.641 282.000,14.400 282.000 C 14.155 282.000,14.000 283.933,14.000 287.000 C 14.000 290.067,13.845 292.000,13.600 292.000 C 13.346 292.000,13.200 295.000,13.200 300.200 C 13.200 305.400,13.346 308.400,13.600 308.400 C 13.846 308.400,14.000 310.389,14.000 313.567 C 14.000 317.309,14.138 318.798,14.500 318.967 C 14.900 319.153,14.900 319.247,14.500 319.433 C 14.139 319.602,14.000 321.051,14.000 324.633 C 14.000 327.678,13.845 329.600,13.600 329.600 C 12.861 329.600,13.176 331.806,14.000 332.400 C 14.440 332.717,14.800 333.215,14.800 333.506 C 14.800 334.193,16.607 336.000,17.294 336.000 C 17.585 336.000,18.083 336.360,18.400 336.800 C 18.994 337.624,21.200 337.939,21.200 337.200 C 21.200 336.955,23.133 336.800,26.200 336.800 C 29.267 336.800,31.200 336.645,31.200 336.400 C 31.200 336.142,35.533 336.000,43.400 336.000 C 51.267 336.000,55.600 335.858,55.600 335.600 C 55.600 335.380,56.140 335.200,56.800 335.200 C 57.460 335.200,58.000 335.020,58.000 334.800 C 58.000 334.580,58.270 334.400,58.600 334.400 C 58.930 334.400,59.200 334.220,59.200 334.000 C 59.200 333.780,59.560 333.600,60.000 333.600 C 60.440 333.600,60.800 333.420,60.800 333.200 C 60.800 332.980,61.083 332.800,61.429 332.800 C 62.151 332.800,63.200 331.865,63.200 331.221 C 63.200 330.552,68.304 325.600,68.993 325.600 C 69.327 325.600,69.600 325.420,69.600 325.200 C 69.600 324.980,69.955 324.800,70.389 324.800 C 71.414 324.800,74.800 321.414,74.800 320.389 C 74.800 319.955,74.980 319.600,75.200 319.600 C 75.420 319.600,75.600 319.327,75.600 318.993 C 75.600 318.201,80.601 313.200,81.393 313.200 C 81.727 313.200,82.000 313.020,82.000 312.800 C 82.000 312.580,82.274 312.400,82.609 312.400 C 83.283 312.400,87.600 308.256,87.600 307.609 C 87.600 307.384,87.780 307.200,88.000 307.200 C 88.220 307.200,88.400 306.925,88.400 306.589 C 88.400 306.254,89.165 305.201,90.100 304.249 C 91.035 303.298,92.065 302.133,92.388 301.660 C 92.712 301.187,93.297 300.800,93.688 300.800 C 94.080 300.800,94.400 300.620,94.400 300.400 C 94.400 300.180,94.940 300.000,95.600 300.000 C 96.260 300.000,96.800 299.820,96.800 299.600 C 96.800 299.380,97.160 299.200,97.600 299.200 C 98.040 299.200,98.400 299.020,98.400 298.800 C 98.400 298.580,98.673 298.400,99.006 298.400 C 99.339 298.400,101.127 296.915,102.980 295.100 C 106.605 291.549,107.442 290.800,107.788 290.800 C 108.197 290.800,115.600 283.216,115.600 282.796 C 115.600 282.254,119.859 278.000,120.402 278.000 C 120.950 278.000,128.000 270.950,128.000 270.402 C 128.000 269.859,132.254 265.600,132.796 265.600 C 133.216 265.600,140.800 258.197,140.800 257.788 C 140.800 257.234,144.645 253.200,145.174 253.200 C 145.743 253.200,153.200 245.743,153.200 245.174 C 153.200 244.645,157.234 240.800,157.788 240.800 C 158.197 240.800,165.600 233.216,165.600 232.796 C 165.600 232.254,169.859 228.000,170.402 228.000 C 170.950 228.000,178.000 220.950,178.000 220.402 C 178.000 219.859,182.254 215.600,182.796 215.600 C 183.216 215.600,190.800 208.197,190.800 207.788 C 190.800 207.234,194.645 203.200,195.174 203.200 C 195.743 203.200,203.200 195.743,203.200 195.174 C 203.200 194.645,207.234 190.800,207.788 190.800 C 208.197 190.800,215.600 183.216,215.600 182.796 C 215.600 182.254,219.859 178.000,220.402 178.000 C 220.950 178.000,228.000 170.950,228.000 170.402 C 228.000 169.859,232.254 165.600,232.796 165.600 C 233.216 165.600,240.800 158.197,240.800 157.788 C 240.800 157.234,244.645 153.200,245.174 153.200 C 245.743 153.200,253.200 145.743,253.200 145.174 C 253.200 144.645,257.234 140.800,257.788 140.800 C 258.197 140.800,265.600 133.216,265.600 132.796 C 265.600 132.254,269.859 128.000,270.402 128.000 C 270.950 128.000,278.000 120.950,278.000 120.402 C 278.000 119.859,282.254 115.600,282.796 115.600 C 283.216 115.600,290.800 108.197,290.800 107.788 C 290.800 107.442,291.549 106.605,295.100 102.980 C 296.915 101.127,298.400 99.339,298.400 99.006 C 298.400 98.673,298.580 98.400,298.800 98.400 C 299.020 98.400,299.200 98.040,299.200 97.600 C 299.200 97.160,299.380 96.800,299.600 96.800 C 299.820 96.800,300.000 96.260,300.000 95.600 C 300.000 94.940,300.180 94.400,300.400 94.400 C 300.620 94.400,300.800 94.080,300.800 93.688 C 300.800 93.297,301.187 92.712,301.660 92.388 C 302.133 92.065,303.298 91.035,304.249 90.100 C 305.201 89.165,306.254 88.400,306.589 88.400 C 306.925 88.400,307.200 88.220,307.200 88.000 C 307.200 87.780,307.384 87.600,307.609 87.600 C 308.256 87.600,312.400 83.283,312.400 82.609 C 312.400 82.274,312.580 82.000,312.800 82.000 C 313.020 82.000,313.200 81.727,313.200 81.393 C 313.200 80.601,318.201 75.600,318.993 75.600 C 319.327 75.600,319.600 75.420,319.600 75.200 C 319.600 74.980,319.955 74.800,320.389 74.800 C 321.397 74.800,324.800 71.422,324.800 70.423 C 324.800 70.007,325.023 69.592,325.296 69.501 C 325.868 69.311,324.761 68.000,324.029 68.000 C 323.793 68.000,323.600 67.820,323.600 67.600 C 323.600 67.380,323.240 67.200,322.800 67.200 C 322.360 67.200,322.000 67.020,322.000 66.800 C 322.000 66.580,321.640 66.400,321.200 66.400 C 320.760 66.400,320.400 66.220,320.400 66.000 C 320.400 65.780,319.860 65.600,319.200 65.600 C 318.540 65.600,318.000 65.420,318.000 65.200 C 318.000 64.942,313.667 64.800,305.800 64.800 C 297.933 64.800,293.600 64.658,293.600 64.400 C 293.600 64.155,291.667 64.000,288.600 64.000 C 285.533 64.000,283.600 63.845,283.600 63.600 C 283.600 63.380,282.700 63.200,281.600 63.200 C 280.500 63.200,279.600 63.380,279.600 63.600 C 279.600 63.845,277.678 64.000,274.633 64.000 C 271.051 64.000,269.602 64.139,269.433 64.500 C 269.247 64.900,269.153 64.900,268.967 64.500 C 268.798 64.138,267.309 64.000,263.567 64.000 C 260.389 64.000,258.400 63.846,258.400 63.600 C 258.400 63.346,255.400 63.200,250.200 63.200 C 245.000 63.200,242.000 63.346,242.000 63.600 " stroke="none" fill="#e1d904" fill-rule="evenodd"></path><path id="path1" d="M375.600 62.800 C 375.600 63.063,364.800 63.200,344.000 63.200 C 323.200 63.200,312.400 63.337,312.400 63.600 C 312.400 63.820,312.040 64.000,311.600 64.000 C 311.160 64.000,310.800 64.180,310.800 64.400 C 310.800 64.637,312.267 64.800,314.400 64.800 C 316.533 64.800,318.000 64.963,318.000 65.200 C 318.000 65.420,318.540 65.600,319.200 65.600 C 319.860 65.600,320.400 65.780,320.400 66.000 C 320.400 66.220,320.760 66.400,321.200 66.400 C 321.640 66.400,322.000 66.580,322.000 66.800 C 322.000 67.020,322.360 67.200,322.800 67.200 C 323.240 67.200,323.600 67.380,323.600 67.600 C 323.600 67.820,323.793 68.000,324.029 68.000 C 324.761 68.000,325.868 69.311,325.296 69.501 C 325.023 69.592,324.800 70.007,324.800 70.423 C 324.800 71.422,321.397 74.800,320.389 74.800 C 319.955 74.800,319.600 74.980,319.600 75.200 C 319.600 75.420,319.327 75.600,318.993 75.600 C 318.201 75.600,313.200 80.601,313.200 81.393 C 313.200 81.727,313.020 82.000,312.800 82.000 C 312.580 82.000,312.400 82.274,312.400 82.609 C 312.400 83.283,308.256 87.600,307.609 87.600 C 307.384 87.600,307.200 87.780,307.200 88.000 C 307.200 88.220,306.925 88.400,306.589 88.400 C 306.254 88.400,305.201 89.165,304.249 90.100 C 303.298 91.035,302.133 92.065,301.660 92.388 C 301.187 92.712,300.800 93.297,300.800 93.688 C 300.800 94.080,300.620 94.400,300.400 94.400 C 300.180 94.400,300.000 94.940,300.000 95.600 C 300.000 96.260,299.820 96.800,299.600 96.800 C 299.380 96.800,299.200 97.160,299.200 97.600 C 299.200 98.040,299.020 98.400,298.800 98.400 C 298.580 98.400,298.400 98.673,298.400 99.006 C 298.400 99.339,296.915 101.127,295.100 102.980 C 291.549 106.605,290.800 107.442,290.800 107.788 C 290.800 108.197,283.216 115.600,282.796 115.600 C 282.254 115.600,278.000 119.859,278.000 120.402 C 278.000 120.950,270.950 128.000,270.402 128.000 C 269.859 128.000,265.600 132.254,265.600 132.796 C 265.600 133.216,258.197 140.800,257.788 140.800 C 257.234 140.800,253.200 144.645,253.200 145.174 C 253.200 145.743,245.743 153.200,245.174 153.200 C 244.645 153.200,240.800 157.234,240.800 157.788 C 240.800 158.197,233.216 165.600,232.796 165.600 C 232.254 165.600,228.000 169.859,228.000 170.402 C 228.000 170.950,220.950 178.000,220.402 178.000 C 219.859 178.000,215.600 182.254,215.600 182.796 C 215.600 183.216,208.197 190.800,207.788 190.800 C 207.234 190.800,203.200 194.645,203.200 195.174 C 203.200 195.743,195.743 203.200,195.174 203.200 C 194.645 203.200,190.800 207.234,190.800 207.788 C 190.800 208.197,183.216 215.600,182.796 215.600 C 182.254 215.600,178.000 219.859,178.000 220.402 C 178.000 220.950,170.950 228.000,170.402 228.000 C 169.859 228.000,165.600 232.254,165.600 232.796 C 165.600 233.216,158.197 240.800,157.788 240.800 C 157.234 240.800,153.200 244.645,153.200 245.174 C 153.200 245.743,145.743 253.200,145.174 253.200 C 144.645 253.200,140.800 257.234,140.800 257.788 C 140.800 258.197,133.216 265.600,132.796 265.600 C 132.254 265.600,128.000 269.859,128.000 270.402 C 128.000 270.950,120.950 278.000,120.402 278.000 C 119.859 278.000,115.600 282.254,115.600 282.796 C 115.600 283.216,108.197 290.800,107.788 290.800 C 107.442 290.800,106.605 291.549,102.980 295.100 C 101.127 296.915,99.339 298.400,99.006 298.400 C 98.673 298.400,98.400 298.580,98.400 298.800 C 98.400 299.020,98.040 299.200,97.600 299.200 C 97.160 299.200,96.800 299.380,96.800 299.600 C 96.800 299.820,96.260 300.000,95.600 300.000 C 94.940 300.000,94.400 300.180,94.400 300.400 C 94.400 300.620,94.080 300.800,93.688 300.800 C 93.297 300.800,92.712 301.187,92.388 301.660 C 92.065 302.133,91.035 303.298,90.100 304.249 C 89.165 305.201,88.400 306.254,88.400 306.589 C 88.400 306.925,88.220 307.200,88.000 307.200 C 87.780 307.200,87.600 307.384,87.600 307.609 C 87.600 308.256,83.283 312.400,82.609 312.400 C 82.274 312.400,82.000 312.580,82.000 312.800 C 82.000 313.020,81.727 313.200,81.393 313.200 C 80.601 313.200,75.600 318.201,75.600 318.993 C 75.600 319.327,75.420 319.600,75.200 319.600 C 74.980 319.600,74.800 319.955,74.800 320.389 C 74.800 321.414,71.414 324.800,70.389 324.800 C 69.955 324.800,69.600 324.980,69.600 325.200 C 69.600 325.420,69.327 325.600,68.993 325.600 C 68.304 325.600,63.200 330.552,63.200 331.221 C 63.200 331.865,62.151 332.800,61.429 332.800 C 61.083 332.800,60.800 332.980,60.800 333.200 C 60.800 333.420,60.440 333.600,60.000 333.600 C 59.560 333.600,59.200 333.780,59.200 334.000 C 59.200 334.220,58.930 334.400,58.600 334.400 C 58.270 334.400,58.000 334.580,58.000 334.800 C 58.000 335.020,57.460 335.200,56.800 335.200 C 56.140 335.200,55.600 335.380,55.600 335.600 C 55.600 335.837,54.133 336.000,52.000 336.000 C 49.867 336.000,48.400 336.163,48.400 336.400 C 48.400 336.620,48.760 336.800,49.200 336.800 C 49.640 336.800,50.000 336.980,50.000 337.200 C 50.000 337.463,60.800 337.600,81.600 337.600 C 102.400 337.600,113.200 337.737,113.200 338.000 C 113.200 338.220,113.920 338.400,114.800 338.400 C 115.680 338.400,116.400 338.220,116.400 338.000 C 116.400 337.745,119.800 337.600,125.800 337.600 C 131.800 337.600,135.200 337.455,135.200 337.200 C 135.200 336.980,136.100 336.800,137.200 336.800 C 138.300 336.800,139.200 336.620,139.200 336.400 C 139.200 336.180,140.010 336.000,141.000 336.000 C 141.990 336.000,142.800 335.820,142.800 335.600 C 142.800 335.346,145.800 335.200,151.000 335.200 C 156.200 335.200,159.200 335.054,159.200 334.800 C 159.200 334.580,160.100 334.400,161.200 334.400 C 162.300 334.400,163.200 334.220,163.200 334.000 C 163.200 333.780,164.100 333.600,165.200 333.600 C 166.300 333.600,167.200 333.420,167.200 333.200 C 167.200 332.948,169.933 332.800,174.600 332.800 C 179.267 332.800,182.000 332.652,182.000 332.400 C 182.000 332.180,182.720 332.000,183.600 332.000 L 185.200 332.000 185.200 330.400 C 185.200 329.520,185.380 328.800,185.600 328.800 C 185.820 328.800,186.000 328.516,186.000 328.169 C 186.000 327.821,186.714 326.876,187.587 326.069 C 190.021 323.817,190.320 323.600,190.983 323.600 C 191.322 323.600,191.600 323.420,191.600 323.200 C 191.600 322.980,192.145 322.800,192.811 322.800 C 194.643 322.800,197.600 319.719,197.600 317.811 C 197.600 317.035,197.780 316.400,198.000 316.400 C 198.220 316.400,198.400 316.126,198.400 315.791 C 198.400 314.999,202.599 310.800,203.391 310.800 C 203.726 310.800,204.000 310.620,204.000 310.400 C 204.000 310.180,204.630 310.000,205.400 310.000 C 206.500 310.000,207.143 309.657,208.400 308.400 C 209.657 307.143,210.000 306.500,210.000 305.400 C 210.000 304.630,210.180 304.000,210.400 304.000 C 210.620 304.000,210.800 303.726,210.800 303.391 C 210.800 302.599,214.999 298.400,215.791 298.400 C 216.126 298.400,216.400 298.220,216.400 298.000 C 216.400 297.780,217.035 297.600,217.811 297.600 C 219.719 297.600,222.800 294.643,222.800 292.811 C 222.800 292.145,222.980 291.600,223.200 291.600 C 223.420 291.600,223.600 291.322,223.600 290.983 C 223.600 290.320,223.817 290.021,226.069 287.587 C 226.876 286.714,227.821 286.000,228.169 286.000 C 228.516 286.000,228.800 285.820,228.800 285.600 C 228.800 285.380,229.435 285.200,230.211 285.200 C 231.348 285.200,231.968 284.853,233.411 283.411 C 234.853 281.968,235.200 281.348,235.200 280.211 C 235.200 279.435,235.380 278.800,235.600 278.800 C 235.820 278.800,236.000 278.516,236.000 278.169 C 236.000 277.821,236.714 276.876,237.587 276.069 C 240.021 273.817,240.320 273.600,240.983 273.600 C 241.322 273.600,241.600 273.420,241.600 273.200 C 241.600 272.980,242.145 272.800,242.811 272.800 C 244.643 272.800,247.600 269.719,247.600 267.811 C 247.600 267.035,247.780 266.400,248.000 266.400 C 248.220 266.400,248.400 266.126,248.400 265.791 C 248.400 264.999,252.599 260.800,253.391 260.800 C 253.726 260.800,254.000 260.620,254.000 260.400 C 254.000 260.180,254.630 260.000,255.400 260.000 C 256.500 260.000,257.143 259.657,258.400 258.400 C 259.657 257.143,260.000 256.500,260.000 255.400 C 260.000 254.630,260.180 254.000,260.400 254.000 C 260.620 254.000,260.800 253.726,260.800 253.391 C 260.800 252.599,264.999 248.400,265.791 248.400 C 266.126 248.400,266.400 248.220,266.400 248.000 C 266.400 247.780,267.035 247.600,267.811 247.600 C 269.719 247.600,272.800 244.643,272.800 242.811 C 272.800 242.145,272.980 241.600,273.200 241.600 C 273.420 241.600,273.600 241.322,273.600 240.983 C 273.600 240.320,273.817 240.021,276.069 237.587 C 276.876 236.714,277.821 236.000,278.169 236.000 C 278.516 236.000,278.800 235.820,278.800 235.600 C 278.800 235.380,279.435 235.200,280.211 235.200 C 282.245 235.200,285.200 232.245,285.200 230.211 C 285.200 229.435,285.380 228.800,285.600 228.800 C 285.820 228.800,286.000 228.516,286.000 228.169 C 286.000 227.821,286.714 226.876,287.587 226.069 C 290.021 223.817,290.320 223.600,290.983 223.600 C 291.322 223.600,291.600 223.420,291.600 223.200 C 291.600 222.980,292.145 222.800,292.811 222.800 C 294.643 222.800,297.600 219.719,297.600 217.811 C 297.600 217.035,297.780 216.400,298.000 216.400 C 298.220 216.400,298.400 216.126,298.400 215.791 C 298.400 214.999,302.599 210.800,303.391 210.800 C 303.726 210.800,304.000 210.620,304.000 210.400 C 304.000 210.180,304.630 210.000,305.400 210.000 C 306.500 210.000,307.143 209.657,308.400 208.400 C 309.657 207.143,310.000 206.500,310.000 205.400 C 310.000 204.630,310.180 204.000,310.400 204.000 C 310.620 204.000,310.800 203.726,310.800 203.391 C 310.800 202.599,314.999 198.400,315.791 198.400 C 316.126 198.400,316.400 198.220,316.400 198.000 C 316.400 197.780,317.035 197.600,317.811 197.600 C 319.719 197.600,322.800 194.643,322.800 192.811 C 322.800 192.145,322.980 191.600,323.200 191.600 C 323.420 191.600,323.600 191.322,323.600 190.983 C 323.600 190.320,323.817 190.021,326.069 187.587 C 326.876 186.714,327.821 186.000,328.169 186.000 C 328.516 186.000,328.800 185.820,328.800 185.600 C 328.800 185.380,329.435 185.200,330.211 185.200 C 332.245 185.200,335.200 182.245,335.200 180.211 C 335.200 179.435,335.380 178.800,335.600 178.800 C 335.820 178.800,336.000 178.516,336.000 178.169 C 336.000 177.821,336.714 176.876,337.587 176.069 C 340.021 173.817,340.320 173.600,340.983 173.600 C 341.322 173.600,341.600 173.420,341.600 173.200 C 341.600 172.980,342.145 172.800,342.811 172.800 C 344.643 172.800,347.600 169.719,347.600 167.811 C 347.600 167.035,347.780 166.400,348.000 166.400 C 348.220 166.400,348.400 166.126,348.400 165.791 C 348.400 164.999,352.599 160.800,353.391 160.800 C 353.726 160.800,354.000 160.620,354.000 160.400 C 354.000 160.180,354.630 160.000,355.400 160.000 C 357.399 160.000,360.000 157.399,360.000 155.400 C 360.000 154.630,360.180 154.000,360.400 154.000 C 360.620 154.000,360.800 153.726,360.800 153.391 C 360.800 152.599,364.999 148.400,365.791 148.400 C 366.126 148.400,366.400 148.220,366.400 148.000 C 366.400 147.780,367.035 147.600,367.811 147.600 C 369.719 147.600,372.800 144.643,372.800 142.811 C 372.800 142.145,372.980 141.600,373.200 141.600 C 373.420 141.600,373.600 141.322,373.600 140.983 C 373.600 140.320,373.817 140.021,376.069 137.587 C 376.876 136.714,377.821 136.000,378.169 136.000 C 378.516 136.000,378.800 135.820,378.800 135.600 C 378.800 135.380,379.520 135.200,380.400 135.200 L 382.000 135.200 382.000 133.600 C 382.000 132.720,382.180 132.000,382.400 132.000 C 382.652 132.000,382.800 129.267,382.800 124.600 C 382.800 119.933,382.948 117.200,383.200 117.200 C 383.420 117.200,383.600 116.300,383.600 115.200 C 383.600 114.100,383.780 113.200,384.000 113.200 C 384.220 113.200,384.400 112.300,384.400 111.200 C 384.400 110.100,384.580 109.200,384.800 109.200 C 385.054 109.200,385.200 106.200,385.200 101.000 C 385.200 95.800,385.346 92.800,385.600 92.800 C 385.820 92.800,386.000 91.990,386.000 91.000 C 386.000 90.010,386.180 89.200,386.400 89.200 C 386.620 89.200,386.800 88.300,386.800 87.200 C 386.800 86.100,386.980 85.200,387.200 85.200 C 387.454 85.200,387.600 82.131,387.600 76.793 L 387.600 68.385 385.007 65.793 C 382.582 63.367,382.298 63.200,380.607 63.200 C 379.613 63.200,378.800 63.020,378.800 62.800 C 378.800 62.580,378.080 62.400,377.200 62.400 C 376.320 62.400,375.600 62.580,375.600 62.800 " stroke="none" fill="#1dd269" fill-rule="evenodd"></path><path id="path2" d="M381.200 62.000 C 381.200 62.220,380.660 62.400,380.000 62.400 C 379.340 62.400,378.800 62.580,378.800 62.800 C 378.800 63.020,379.613 63.200,380.607 63.200 C 382.298 63.200,382.582 63.367,385.007 65.793 L 387.600 68.385 387.600 76.793 C 387.600 82.131,387.454 85.200,387.200 85.200 C 386.980 85.200,386.800 86.100,386.800 87.200 C 386.800 88.300,386.620 89.200,386.400 89.200 C 386.180 89.200,386.000 90.010,386.000 91.000 C 386.000 91.990,385.820 92.800,385.600 92.800 C 385.346 92.800,385.200 95.800,385.200 101.000 C 385.200 106.200,385.054 109.200,384.800 109.200 C 384.580 109.200,384.400 110.100,384.400 111.200 C 384.400 112.300,384.220 113.200,384.000 113.200 C 383.780 113.200,383.600 114.100,383.600 115.200 C 383.600 116.300,383.420 117.200,383.200 117.200 C 382.948 117.200,382.800 119.933,382.800 124.600 C 382.800 129.267,382.652 132.000,382.400 132.000 C 382.180 132.000,382.000 132.720,382.000 133.600 L 382.000 135.200 380.400 135.200 C 379.520 135.200,378.800 135.380,378.800 135.600 C 378.800 135.820,378.516 136.000,378.169 136.000 C 377.821 136.000,376.876 136.714,376.069 137.587 C 373.817 140.021,373.600 140.320,373.600 140.983 C 373.600 141.322,373.420 141.600,373.200 141.600 C 372.980 141.600,372.800 142.145,372.800 142.811 C 372.800 144.643,369.719 147.600,367.811 147.600 C 367.035 147.600,366.400 147.780,366.400 148.000 C 366.400 148.220,366.126 148.400,365.791 148.400 C 364.999 148.400,360.800 152.599,360.800 153.391 C 360.800 153.726,360.620 154.000,360.400 154.000 C 360.180 154.000,360.000 154.630,360.000 155.400 C 360.000 157.399,357.399 160.000,355.400 160.000 C 354.630 160.000,354.000 160.180,354.000 160.400 C 354.000 160.620,353.726 160.800,353.391 160.800 C 352.599 160.800,348.400 164.999,348.400 165.791 C 348.400 166.126,348.220 166.400,348.000 166.400 C 347.780 166.400,347.600 167.035,347.600 167.811 C 347.600 169.719,344.643 172.800,342.811 172.800 C 342.145 172.800,341.600 172.980,341.600 173.200 C 341.600 173.420,341.322 173.600,340.983 173.600 C 340.320 173.600,340.021 173.817,337.587 176.069 C 336.714 176.876,336.000 177.821,336.000 178.169 C 336.000 178.516,335.820 178.800,335.600 178.800 C 335.380 178.800,335.200 179.435,335.200 180.211 C 335.200 182.245,332.245 185.200,330.211 185.200 C 329.435 185.200,328.800 185.380,328.800 185.600 C 328.800 185.820,328.516 186.000,328.169 186.000 C 327.821 186.000,326.876 186.714,326.069 187.587 C 323.817 190.021,323.600 190.320,323.600 190.983 C 323.600 191.322,323.420 191.600,323.200 191.600 C 322.980 191.600,322.800 192.145,322.800 192.811 C 322.800 194.643,319.719 197.600,317.811 197.600 C 317.035 197.600,316.400 197.780,316.400 198.000 C 316.400 198.220,316.126 198.400,315.791 198.400 C 314.999 198.400,310.800 202.599,310.800 203.391 C 310.800 203.726,310.620 204.000,310.400 204.000 C 310.180 204.000,310.000 204.630,310.000 205.400 C 310.000 206.500,309.657 207.143,308.400 208.400 C 307.143 209.657,306.500 210.000,305.400 210.000 C 304.630 210.000,304.000 210.180,304.000 210.400 C 304.000 210.620,303.726 210.800,303.391 210.800 C 302.599 210.800,298.400 214.999,298.400 215.791 C 298.400 216.126,298.220 216.400,298.000 216.400 C 297.780 216.400,297.600 217.035,297.600 217.811 C 297.600 219.719,294.643 222.800,292.811 222.800 C 292.145 222.800,291.600 222.980,291.600 223.200 C 291.600 223.420,291.322 223.600,290.983 223.600 C 290.320 223.600,290.021 223.817,287.587 226.069 C 286.714 226.876,286.000 227.821,286.000 228.169 C 286.000 228.516,285.820 228.800,285.600 228.800 C 285.380 228.800,285.200 229.435,285.200 230.211 C 285.200 232.245,282.245 235.200,280.211 235.200 C 279.435 235.200,278.800 235.380,278.800 235.600 C 278.800 235.820,278.516 236.000,278.169 236.000 C 277.821 236.000,276.876 236.714,276.069 237.587 C 273.817 240.021,273.600 240.320,273.600 240.983 C 273.600 241.322,273.420 241.600,273.200 241.600 C 272.980 241.600,272.800 242.145,272.800 242.811 C 272.800 244.643,269.719 247.600,267.811 247.600 C 267.035 247.600,266.400 247.780,266.400 248.000 C 266.400 248.220,266.126 248.400,265.791 248.400 C 264.999 248.400,260.800 252.599,260.800 253.391 C 260.800 253.726,260.620 254.000,260.400 254.000 C 260.180 254.000,260.000 254.630,260.000 255.400 C 260.000 256.500,259.657 257.143,258.400 258.400 C 257.143 259.657,256.500 260.000,255.400 260.000 C 254.630 260.000,254.000 260.180,254.000 260.400 C 254.000 260.620,253.726 260.800,253.391 260.800 C 252.599 260.800,248.400 264.999,248.400 265.791 C 248.400 266.126,248.220 266.400,248.000 266.400 C 247.780 266.400,247.600 267.035,247.600 267.811 C 247.600 269.719,244.643 272.800,242.811 272.800 C 242.145 272.800,241.600 272.980,241.600 273.200 C 241.600 273.420,241.322 273.600,240.983 273.600 C 240.320 273.600,240.021 273.817,237.587 276.069 C 236.714 276.876,236.000 277.821,236.000 278.169 C 236.000 278.516,235.820 278.800,235.600 278.800 C 235.380 278.800,235.200 279.435,235.200 280.211 C 235.200 281.348,234.853 281.968,233.411 283.411 C 231.968 284.853,231.348 285.200,230.211 285.200 C 229.435 285.200,228.800 285.380,228.800 285.600 C 228.800 285.820,228.516 286.000,228.169 286.000 C 227.821 286.000,226.876 286.714,226.069 287.587 C 223.817 290.021,223.600 290.320,223.600 290.983 C 223.600 291.322,223.420 291.600,223.200 291.600 C 222.980 291.600,222.800 292.145,222.800 292.811 C 222.800 294.643,219.719 297.600,217.811 297.600 C 217.035 297.600,216.400 297.780,216.400 298.000 C 216.400 298.220,216.126 298.400,215.791 298.400 C 215.457 298.400,214.197 299.386,212.991 300.591 C 211.786 301.797,210.800 303.057,210.800 303.391 C 210.800 303.726,210.620 304.000,210.400 304.000 C 210.180 304.000,210.000 304.630,210.000 305.400 C 210.000 306.500,209.657 307.143,208.400 308.400 C 207.143 309.657,206.500 310.000,205.400 310.000 C 204.630 310.000,204.000 310.180,204.000 310.400 C 204.000 310.620,203.726 310.800,203.391 310.800 C 202.599 310.800,198.400 314.999,198.400 315.791 C 198.400 316.126,198.220 316.400,198.000 316.400 C 197.780 316.400,197.600 317.035,197.600 317.811 C 197.600 319.719,194.643 322.800,192.811 322.800 C 192.145 322.800,191.600 322.980,191.600 323.200 C 191.600 323.420,191.322 323.600,190.983 323.600 C 190.320 323.600,190.021 323.817,187.587 326.069 C 186.714 326.876,186.000 327.821,186.000 328.169 C 186.000 328.516,185.820 328.800,185.600 328.800 C 185.380 328.800,185.200 329.520,185.200 330.400 L 185.200 332.000 183.600 332.000 C 182.720 332.000,182.000 332.180,182.000 332.400 C 182.000 332.652,179.267 332.800,174.600 332.800 C 169.933 332.800,167.200 332.948,167.200 333.200 C 167.200 333.420,166.300 333.600,165.200 333.600 C 164.100 333.600,163.200 333.780,163.200 334.000 C 163.200 334.220,162.300 334.400,161.200 334.400 C 160.100 334.400,159.200 334.580,159.200 334.800 C 159.200 335.054,156.200 335.200,151.000 335.200 C 145.800 335.200,142.800 335.346,142.800 335.600 C 142.800 335.820,141.990 336.000,141.000 336.000 C 140.010 336.000,139.200 336.180,139.200 336.400 C 139.200 336.620,138.300 336.800,137.200 336.800 C 136.100 336.800,135.200 336.980,135.200 337.200 C 135.200 337.455,131.800 337.600,125.800 337.600 C 119.800 337.600,116.400 337.745,116.400 338.000 C 116.400 338.220,116.940 338.400,117.600 338.400 C 118.260 338.400,118.800 338.580,118.800 338.800 C 118.800 339.064,131.400 339.200,155.800 339.200 C 180.200 339.200,192.800 339.064,192.800 338.800 C 192.800 338.538,200.533 338.400,215.200 338.400 C 229.867 338.400,237.600 338.262,237.600 338.000 C 237.600 337.742,242.133 337.600,250.400 337.600 C 258.667 337.600,263.200 337.458,263.200 337.200 C 263.200 336.952,265.400 336.800,269.000 336.800 C 272.600 336.800,274.800 336.952,274.800 337.200 C 274.800 337.451,277.333 337.600,281.600 337.600 C 285.867 337.600,288.400 337.451,288.400 337.200 C 288.400 336.936,304.267 336.800,335.200 336.800 C 366.133 336.800,382.000 336.664,382.000 336.400 C 382.000 336.180,382.276 336.000,382.613 336.000 C 383.409 336.000,386.000 333.409,386.000 332.613 C 386.000 332.276,386.180 332.000,386.400 332.000 C 386.664 332.000,386.800 316.133,386.800 285.200 C 386.800 254.267,386.936 238.400,387.200 238.400 C 387.451 238.400,387.600 235.867,387.600 231.600 C 387.600 227.333,387.451 224.800,387.200 224.800 C 386.952 224.800,386.800 222.600,386.800 219.000 C 386.800 215.400,386.952 213.200,387.200 213.200 C 387.458 213.200,387.600 208.667,387.600 200.400 C 387.600 192.133,387.742 187.600,388.000 187.600 C 388.262 187.600,388.400 179.867,388.400 165.200 C 388.400 150.533,388.538 142.800,388.800 142.800 C 389.064 142.800,389.200 130.200,389.200 105.800 C 389.200 81.400,389.064 68.800,388.800 68.800 C 388.580 68.800,388.400 68.527,388.400 68.193 C 388.400 67.401,383.399 62.400,382.607 62.400 C 382.273 62.400,382.000 62.220,382.000 62.000 C 382.000 61.780,381.820 61.600,381.600 61.600 C 381.380 61.600,381.200 61.780,381.200 62.000 " stroke="none" fill="#0443c4" fill-rule="evenodd"></path><path id="path3" d="M242.000 61.200 C 242.000 61.458,237.467 61.600,229.200 61.600 C 220.933 61.600,216.400 61.742,216.400 62.000 C 216.400 62.264,203.867 62.400,179.600 62.400 C 155.333 62.400,142.800 62.536,142.800 62.800 C 142.800 63.065,121.896 63.200,80.888 63.200 C 19.435 63.200,18.972 63.206,18.400 64.000 C 18.083 64.440,17.585 64.800,17.294 64.800 C 16.607 64.800,14.800 66.607,14.800 67.294 C 14.800 67.585,14.440 68.083,14.000 68.400 C 13.206 68.972,13.200 69.435,13.200 130.888 C 13.200 171.896,13.065 192.800,12.800 192.800 C 12.536 192.800,12.400 205.333,12.400 229.600 C 12.400 253.867,12.264 266.400,12.000 266.400 C 11.742 266.400,11.600 270.933,11.600 279.200 C 11.600 287.467,11.458 292.000,11.200 292.000 C 10.946 292.000,10.800 295.000,10.800 300.200 C 10.800 305.400,10.946 308.400,11.200 308.400 C 11.457 308.400,11.600 312.200,11.600 319.000 C 11.600 325.800,11.457 329.600,11.200 329.600 C 10.980 329.600,10.800 330.140,10.800 330.800 C 10.800 331.460,10.980 332.000,11.200 332.000 C 11.420 332.000,11.600 332.360,11.600 332.800 C 11.600 333.240,11.780 333.600,12.000 333.600 C 12.220 333.600,12.400 333.875,12.400 334.211 C 12.400 335.004,15.796 338.400,16.589 338.400 C 16.925 338.400,17.200 338.580,17.200 338.800 C 17.200 339.020,17.560 339.200,18.000 339.200 C 18.440 339.200,18.800 339.380,18.800 339.600 C 18.800 339.820,19.340 340.000,20.000 340.000 C 20.660 340.000,21.200 339.820,21.200 339.600 C 21.200 339.346,24.200 339.200,29.400 339.200 C 34.600 339.200,37.600 339.054,37.600 338.800 C 37.600 338.549,40.200 338.400,44.600 338.400 C 49.000 338.400,51.600 338.251,51.600 338.000 C 51.600 337.780,51.240 337.600,50.800 337.600 C 50.360 337.600,50.000 337.420,50.000 337.200 C 50.000 336.980,49.640 336.800,49.200 336.800 C 48.760 336.800,48.400 336.620,48.400 336.400 C 48.400 336.146,45.267 336.000,39.800 336.000 C 34.333 336.000,31.200 336.146,31.200 336.400 C 31.200 336.645,29.267 336.800,26.200 336.800 C 23.133 336.800,21.200 336.955,21.200 337.200 C 21.200 337.939,18.994 337.624,18.400 336.800 C 18.083 336.360,17.585 336.000,17.294 336.000 C 16.607 336.000,14.800 334.193,14.800 333.506 C 14.800 333.215,14.440 332.717,14.000 332.400 C 13.176 331.806,12.861 329.600,13.600 329.600 C 13.845 329.600,14.000 327.678,14.000 324.633 C 14.000 321.051,14.139 319.602,14.500 319.433 C 14.900 319.247,14.900 319.153,14.500 318.967 C 14.138 318.798,14.000 317.309,14.000 313.567 C 14.000 310.389,13.846 308.400,13.600 308.400 C 13.346 308.400,13.200 305.400,13.200 300.200 C 13.200 295.000,13.346 292.000,13.600 292.000 C 13.845 292.000,14.000 290.067,14.000 287.000 C 14.000 283.933,14.155 282.000,14.400 282.000 C 14.641 282.000,14.800 280.333,14.800 277.800 C 14.800 275.267,14.959 273.600,15.200 273.600 C 15.433 273.600,15.600 272.267,15.600 270.400 C 15.600 268.533,15.767 267.200,16.000 267.200 C 16.229 267.200,16.400 266.000,16.400 264.400 C 16.400 262.800,16.571 261.600,16.800 261.600 C 17.020 261.600,17.200 260.610,17.200 259.400 C 17.200 258.190,17.380 257.200,17.600 257.200 C 17.820 257.200,18.000 256.300,18.000 255.200 C 18.000 254.100,18.180 253.200,18.400 253.200 C 18.620 253.200,18.800 252.381,18.800 251.381 C 18.800 249.662,18.951 249.412,21.536 246.863 C 23.041 245.379,24.397 243.668,24.549 243.061 C 24.869 241.785,28.887 237.600,29.791 237.600 C 30.126 237.600,30.400 237.420,30.400 237.200 C 30.400 236.980,30.673 236.800,31.007 236.800 C 31.799 236.800,36.800 231.799,36.800 231.007 C 36.800 230.673,36.980 230.400,37.200 230.400 C 37.420 230.400,37.600 230.126,37.600 229.791 C 37.600 228.892,41.782 224.870,43.046 224.553 C 44.307 224.236,49.200 219.509,49.200 218.607 C 49.200 218.273,49.380 218.000,49.600 218.000 C 49.820 218.000,50.000 217.726,50.000 217.391 C 50.000 216.599,54.199 212.400,54.991 212.400 C 55.326 212.400,55.600 212.220,55.600 212.000 C 55.600 211.780,55.920 211.600,56.312 211.600 C 56.703 211.600,57.288 211.215,57.612 210.745 C 58.363 209.653,59.653 208.363,60.745 207.612 C 61.215 207.288,61.600 206.703,61.600 206.312 C 61.600 205.920,61.780 205.600,62.000 205.600 C 62.220 205.600,62.400 205.326,62.400 204.991 C 62.400 204.199,66.599 200.000,67.391 200.000 C 67.726 200.000,68.000 199.820,68.000 199.600 C 68.000 199.380,68.273 199.200,68.607 199.200 C 69.509 199.200,74.236 194.307,74.553 193.046 C 74.870 191.782,78.892 187.600,79.791 187.600 C 80.126 187.600,80.400 187.420,80.400 187.200 C 80.400 186.980,80.673 186.800,81.007 186.800 C 81.799 186.800,86.800 181.799,86.800 181.007 C 86.800 180.673,86.980 180.400,87.200 180.400 C 87.420 180.400,87.600 180.126,87.600 179.791 C 87.600 178.892,91.782 174.870,93.046 174.553 C 94.307 174.236,99.200 169.509,99.200 168.607 C 99.200 168.273,99.380 168.000,99.600 168.000 C 99.820 168.000,100.000 167.726,100.000 167.391 C 100.000 166.599,104.199 162.400,104.991 162.400 C 105.326 162.400,105.600 162.220,105.600 162.000 C 105.600 161.780,105.920 161.600,106.312 161.600 C 106.703 161.600,107.288 161.215,107.612 160.745 C 108.363 159.653,109.653 158.363,110.745 157.612 C 111.215 157.288,111.600 156.703,111.600 156.312 C 111.600 155.920,111.780 155.600,112.000 155.600 C 112.220 155.600,112.400 155.326,112.400 154.991 C 112.400 154.199,116.599 150.000,117.391 150.000 C 117.726 150.000,118.000 149.820,118.000 149.600 C 118.000 149.380,118.273 149.200,118.607 149.200 C 119.509 149.200,124.236 144.307,124.553 143.046 C 124.870 141.782,128.892 137.600,129.791 137.600 C 130.126 137.600,130.400 137.420,130.400 137.200 C 130.400 136.980,130.673 136.800,131.007 136.800 C 131.799 136.800,136.800 131.799,136.800 131.007 C 136.800 130.673,136.980 130.400,137.200 130.400 C 137.420 130.400,137.600 130.126,137.600 129.791 C 137.600 128.892,141.782 124.870,143.046 124.553 C 144.307 124.236,149.200 119.509,149.200 118.607 C 149.200 118.273,149.380 118.000,149.600 118.000 C 149.820 118.000,150.000 117.726,150.000 117.391 C 150.000 116.599,154.199 112.400,154.991 112.400 C 155.326 112.400,155.600 112.220,155.600 112.000 C 155.600 111.780,155.920 111.600,156.312 111.600 C 156.703 111.600,157.288 111.215,157.612 110.745 C 158.363 109.653,159.653 108.363,160.745 107.612 C 161.215 107.288,161.600 106.703,161.600 106.312 C 161.600 105.920,161.780 105.600,162.000 105.600 C 162.220 105.600,162.400 105.326,162.400 104.991 C 162.400 104.199,166.599 100.000,167.391 100.000 C 167.726 100.000,168.000 99.820,168.000 99.600 C 168.000 99.380,168.273 99.200,168.607 99.200 C 169.509 99.200,174.236 94.307,174.553 93.046 C 174.870 91.782,178.892 87.600,179.791 87.600 C 180.126 87.600,180.400 87.420,180.400 87.200 C 180.400 86.980,180.673 86.800,181.007 86.800 C 181.799 86.800,186.800 81.799,186.800 81.007 C 186.800 80.673,186.980 80.400,187.200 80.400 C 187.420 80.400,187.600 80.126,187.600 79.791 C 187.600 78.887,191.785 74.869,193.061 74.549 C 193.668 74.397,195.379 73.041,196.863 71.536 C 199.412 68.951,199.662 68.800,201.381 68.800 C 202.381 68.800,203.200 68.620,203.200 68.400 C 203.200 68.180,204.100 68.000,205.200 68.000 C 206.300 68.000,207.200 67.820,207.200 67.600 C 207.200 67.380,208.190 67.200,209.400 67.200 C 210.610 67.200,211.600 67.020,211.600 66.800 C 211.600 66.571,212.800 66.400,214.400 66.400 C 216.000 66.400,217.200 66.229,217.200 66.000 C 217.200 65.767,218.533 65.600,220.400 65.600 C 222.267 65.600,223.600 65.433,223.600 65.200 C 223.600 64.959,225.267 64.800,227.800 64.800 C 230.333 64.800,232.000 64.641,232.000 64.400 C 232.000 64.155,233.933 64.000,237.000 64.000 C 240.067 64.000,242.000 63.845,242.000 63.600 C 242.000 63.346,245.000 63.200,250.200 63.200 C 255.400 63.200,258.400 63.346,258.400 63.600 C 258.400 63.846,260.389 64.000,263.567 64.000 C 267.309 64.000,268.798 64.138,268.967 64.500 C 269.153 64.900,269.247 64.900,269.433 64.500 C 269.602 64.139,271.051 64.000,274.633 64.000 C 277.678 64.000,279.600 63.845,279.600 63.600 C 279.600 63.380,280.500 63.200,281.600 63.200 C 282.700 63.200,283.600 63.380,283.600 63.600 C 283.600 63.845,285.533 64.000,288.600 64.000 C 291.667 64.000,293.600 64.155,293.600 64.400 C 293.600 64.654,296.733 64.800,302.200 64.800 C 307.667 64.800,310.800 64.654,310.800 64.400 C 310.800 64.180,311.160 64.000,311.600 64.000 C 312.040 64.000,312.400 63.820,312.400 63.600 C 312.400 63.380,312.760 63.200,313.200 63.200 C 313.640 63.200,314.000 63.020,314.000 62.800 C 314.000 62.549,311.400 62.400,307.000 62.400 C 302.600 62.400,300.000 62.251,300.000 62.000 C 300.000 61.746,297.000 61.600,291.800 61.600 C 286.600 61.600,283.600 61.454,283.600 61.200 C 283.600 60.980,282.700 60.800,281.600 60.800 C 280.500 60.800,279.600 60.980,279.600 61.200 C 279.600 61.457,275.800 61.600,269.000 61.600 C 262.200 61.600,258.400 61.457,258.400 61.200 C 258.400 60.946,255.400 60.800,250.200 60.800 C 245.000 60.800,242.000 60.946,242.000 61.200 " stroke="none" fill="#e44304" fill-rule="evenodd"></path><path id="path4" d="M0.000 200.000 L 0.000 400.000 200.000 400.000 L 400.000 400.000 400.000 200.000 L 400.000 0.000 200.000 0.000 L 0.000 0.000 0.000 200.000 M31.200 37.400 L 31.200 43.600 25.000 43.600 L 18.800 43.600 18.800 37.400 L 18.800 31.200 25.000 31.200 L 31.200 31.200 31.200 37.400 M81.200 37.400 L 81.200 43.600 75.000 43.600 L 68.800 43.600 68.800 37.400 L 68.800 31.200 75.000 31.200 L 81.200 31.200 81.200 37.400 M131.200 37.400 L 131.200 43.600 125.000 43.600 L 118.800 43.600 118.800 37.400 L 118.800 31.200 125.000 31.200 L 131.200 31.200 131.200 37.400 M181.200 37.400 L 181.200 43.600 175.000 43.600 L 168.800 43.600 168.800 37.400 L 168.800 31.200 175.000 31.200 L 181.200 31.200 181.200 37.400 M231.200 37.400 L 231.200 43.600 225.000 43.600 L 218.800 43.600 218.800 37.400 L 218.800 31.200 225.000 31.200 L 231.200 31.200 231.200 37.400 M281.200 37.400 L 281.200 43.600 275.000 43.600 L 268.800 43.600 268.800 37.400 L 268.800 31.200 275.000 31.200 L 281.200 31.200 281.200 37.400 M331.200 37.400 L 331.200 43.600 325.000 43.600 L 318.800 43.600 318.800 37.400 L 318.800 31.200 325.000 31.200 L 331.200 31.200 331.200 37.400 M381.200 37.400 L 381.200 43.600 375.000 43.600 L 368.800 43.600 368.800 37.400 L 368.800 31.200 375.000 31.200 L 381.200 31.200 381.200 37.400 M258.400 61.200 C 258.400 61.457,262.200 61.600,269.000 61.600 C 275.800 61.600,279.600 61.457,279.600 61.200 C 279.600 60.980,280.500 60.800,281.600 60.800 C 282.700 60.800,283.600 60.980,283.600 61.200 C 283.600 61.454,286.600 61.600,291.800 61.600 C 297.000 61.600,300.000 61.746,300.000 62.000 C 300.000 62.251,302.600 62.400,307.000 62.400 C 311.400 62.400,314.000 62.549,314.000 62.800 C 314.000 63.063,324.533 63.200,344.800 63.200 C 365.067 63.200,375.600 63.063,375.600 62.800 C 375.600 62.572,376.789 62.400,378.367 62.400 C 380.189 62.400,381.213 62.229,381.367 61.900 C 381.553 61.500,381.647 61.500,381.833 61.900 C 381.962 62.175,382.325 62.400,382.641 62.400 C 383.408 62.400,388.400 67.421,388.400 68.193 C 388.400 68.527,388.580 68.800,388.800 68.800 C 389.064 68.800,389.200 81.400,389.200 105.800 C 389.200 130.200,389.064 142.800,388.800 142.800 C 388.538 142.800,388.400 150.533,388.400 165.200 C 388.400 179.867,388.262 187.600,388.000 187.600 C 387.742 187.600,387.600 192.133,387.600 200.400 C 387.600 208.667,387.458 213.200,387.200 213.200 C 386.952 213.200,386.800 215.400,386.800 219.000 C 386.800 222.600,386.952 224.800,387.200 224.800 C 387.451 224.800,387.600 227.333,387.600 231.600 C 387.600 235.867,387.451 238.400,387.200 238.400 C 386.936 238.400,386.800 254.267,386.800 285.200 C 386.800 316.133,386.664 332.000,386.400 332.000 C 386.180 332.000,386.000 332.276,386.000 332.613 C 386.000 332.951,385.376 333.851,384.613 334.613 C 383.851 335.376,382.951 336.000,382.613 336.000 C 382.276 336.000,382.000 336.180,382.000 336.400 C 382.000 336.664,366.133 336.800,335.200 336.800 C 304.267 336.800,288.400 336.936,288.400 337.200 C 288.400 337.451,285.867 337.600,281.600 337.600 C 277.333 337.600,274.800 337.451,274.800 337.200 C 274.800 336.952,272.600 336.800,269.000 336.800 C 265.400 336.800,263.200 336.952,263.200 337.200 C 263.200 337.458,258.667 337.600,250.400 337.600 C 242.133 337.600,237.600 337.742,237.600 338.000 C 237.600 338.262,229.867 338.400,215.200 338.400 C 200.533 338.400,192.800 338.538,192.800 338.800 C 192.800 339.064,180.200 339.200,155.800 339.200 C 131.400 339.200,118.800 339.064,118.800 338.800 C 118.800 338.571,117.600 338.400,116.000 338.400 C 114.400 338.400,113.200 338.229,113.200 338.000 C 113.200 337.737,102.667 337.600,82.400 337.600 C 62.133 337.600,51.600 337.737,51.600 338.000 C 51.600 338.251,49.000 338.400,44.600 338.400 C 40.200 338.400,37.600 338.549,37.600 338.800 C 37.600 339.054,34.600 339.200,29.400 339.200 C 24.200 339.200,21.200 339.346,21.200 339.600 C 21.200 339.820,20.660 340.000,20.000 340.000 C 19.340 340.000,18.800 339.820,18.800 339.600 C 18.800 339.380,18.440 339.200,18.000 339.200 C 17.560 339.200,17.200 339.020,17.200 338.800 C 17.200 338.580,16.925 338.400,16.589 338.400 C 15.796 338.400,12.400 335.004,12.400 334.211 C 12.400 333.875,12.220 333.600,12.000 333.600 C 11.780 333.600,11.600 333.240,11.600 332.800 C 11.600 332.360,11.420 332.000,11.200 332.000 C 10.980 332.000,10.800 331.460,10.800 330.800 C 10.800 330.140,10.980 329.600,11.200 329.600 C 11.457 329.600,11.600 325.800,11.600 319.000 C 11.600 312.200,11.457 308.400,11.200 308.400 C 10.946 308.400,10.800 305.400,10.800 300.200 C 10.800 295.000,10.946 292.000,11.200 292.000 C 11.458 292.000,11.600 287.467,11.600 279.200 C 11.600 270.933,11.742 266.400,12.000 266.400 C 12.264 266.400,12.400 253.867,12.400 229.600 C 12.400 205.333,12.536 192.800,12.800 192.800 C 13.065 192.800,13.200 171.896,13.200 130.888 C 13.200 69.435,13.206 68.972,14.000 68.400 C 14.440 68.083,14.800 67.585,14.800 67.294 C 14.800 66.607,16.607 64.800,17.294 64.800 C 17.585 64.800,18.083 64.440,18.400 64.000 C 18.972 63.206,19.435 63.200,80.888 63.200 C 121.896 63.200,142.800 63.065,142.800 62.800 C 142.800 62.536,155.333 62.400,179.600 62.400 C 203.867 62.400,216.400 62.264,216.400 62.000 C 216.400 61.742,220.933 61.600,229.200 61.600 C 237.467 61.600,242.000 61.458,242.000 61.200 C 242.000 60.946,245.000 60.800,250.200 60.800 C 255.400 60.800,258.400 60.946,258.400 61.200 M31.200 362.600 L 31.200 368.800 25.000 368.800 L 18.800 368.800 18.800 362.600 L 18.800 356.400 25.000 356.400 L 31.200 356.400 31.200 362.600 M81.200 362.600 L 81.200 368.800 75.000 368.800 L 68.800 368.800 68.800 362.600 L 68.800 356.400 75.000 356.400 L 81.200 356.400 81.200 362.600 M131.200 362.600 L 131.200 368.800 125.000 368.800 L 118.800 368.800 118.800 362.600 L 118.800 356.400 125.000 356.400 L 131.200 356.400 131.200 362.600 M181.200 362.600 L 181.200 368.800 175.000 368.800 L 168.800 368.800 168.800 362.600 L 168.800 356.400 175.000 356.400 L 181.200 356.400 181.200 362.600 M231.200 362.600 L 231.200 368.800 225.000 368.800 L 218.800 368.800 218.800 362.600 L 218.800 356.400 225.000 356.400 L 231.200 356.400 231.200 362.600 M281.200 362.600 L 281.200 368.800 275.000 368.800 L 268.800 368.800 268.800 362.600 L 268.800 356.400 275.000 356.400 L 281.200 356.400 281.200 362.600 M331.200 362.600 L 331.200 368.800 325.000 368.800 L 318.800 368.800 318.800 362.600 L 318.800 356.400 325.000 356.400 L 331.200 356.400 331.200 362.600 M381.200 362.600 L 381.200 368.800 375.000 368.800 L 368.800 368.800 368.800 362.600 L 368.800 356.400 375.000 356.400 L 381.200 356.400 381.200 362.600 " stroke="none" fill="#040404" fill-rule="evenodd"></path></g></svg>