<?xml version="1.0" encoding="utf-8"?>
<!DOCTYPE svg PUBLIC "-//W3C//DTD SVG 1.1//EN" "http://www.w3.org/Graphics/SVG/1.1/DTD/svg11.dtd">
<svg version="1.1" xmlns="http://www.w3.org/2000/svg" xmlns:xlink="http://www.w3.org/1999/xlink" width="128" height="128" viewBox="0 0 128 128">
<path fill="#BB2031" d="M40 34h18v61h-8v11h28v-12h-7v-61h19v9h10v-18h-71v18h11zM122.2 3h-116.169c-2.026 0-4.031 1.226-4.031 3.225v116.154c0 2 2.005 3.621 4.031 3.621h116.169c2.026 0 2.8-1.621 2.8-3.621v-116.154c0-1.999-.774-3.225-2.8-3.225zm-16.2 45h-21v-9h-9v48h9v24h-40v-23h6v-48h-6v8h-23v-30h84v30z"></path>
</svg>